<?xml version="1.0"?>
<svg width="412" height="750" xmlns="http://www.w3.org/2000/svg" xmlns:svg="http://www.w3.org/2000/svg">
 <defs>
  <clipPath id="clip-background">
   <rect height="750" id="svg_1" width="412"/>
  </clipPath>
 </defs>
 <g class="layer">
  <title>Layer 1</title>
  <rect fill="#faf8f6" height="750" id="svg_2" stroke="#032cb2" width="412" x="-49" y="42"/>
  <path d="m-279.01,336.83c14.23,-24.28 28.29,-47.81 42.6,-71.29c-6.19,13.24 -12.34,26.63 -18.57,40.18c-8.1,10.27 -16.11,20.59 -24.03,31.11zm-9.71,12.46c20.29,-34.85 40.08,-67.94 60.56,-101.27c15.2,-31.96 30.9,-63.13 48.62,-93.8q6.07,-12.26 12.7,-24.08q4.27,-8.86 8.94,-17.3q3.62,-7.71 7.62,-14.96q3.26,-7.11 6.91,-13.71q0.4,-0.89 0.8,-1.77q2.67,-5.8 5.67,-11.16a132.56,132.56 0 0 1 6.18,-12.4a112.77,112.77 0 0 1 5.98,-12.04a97.45,97.45 0 0 1 5.83,-11.77a85.1,85.1 0 0 1 5.72,-11.56a75.06,75.06 0 0 1 5.64,-11.41a66.79,66.79 0 0 1 5.57,-11.28c3.85,-10.17 9.3,-17.93 16.77,-22.82c9.17,-6 21.19,-7.57 36.57,-4.29c11.11,2.36 21.88,4.96 32.34,7.72q3.56,-2.4 7.15,-4.78c18.44,-13.62 37.53,-26.58 56.72,-38.56c63.39,-39.55 127.98,-68.4 173.19,-74.37q2.64,-0.46 5.19,-0.82q3.98,-0.79 7.77,-1.31q4.63,-0.99 9,-1.58q5.01,-1.12 9.7,-1.73a97.13,97.13 0 0 1 10.15,-1.84a88.47,88.47 0 0 1 10.47,-1.91a81.06,81.06 0 0 1 10.69,-1.96a74.6,74.6 0 0 1 10.85,-2q3.02,-0.8 5.91,-1.32q1.59,-0.79 3.15,-1.52c10,-6.19 19.36,-10.76 27.81,-13.49c12.69,-4.1 23.56,-4.13 31.55,1.03l-1.14,1.77c-7.22,-4.66 -17.33,-4.82 -29.77,-0.8a104.25,104.25 0 0 0 -14.5,6.06c12.16,-3.68 22.65,-3.76 30.63,0.66l-1.02,1.84c-7.54,-4.18 -17.86,-4.09 -30.37,-0.06q-2.72,0.87 -5.55,1.99c8.99,-1.72 16.9,-1.25 23.36,1.78l-0.9,1.9c-5.45,-2.56 -12.18,-3.18 -20,-1.98a32.69,32.69 0 0 1 9.32,2.07l-0.76,1.96a35.79,35.79 0 0 0 -16.49,-1.84a34.68,34.68 0 0 1 5.99,1.32l-0.64,2a36.16,36.16 0 0 0 -10.9,-1.57q-0.53,0.35 -1.07,0.7q0.68,0.14 1.35,0.31l-0.51,2.04q-1.63,-0.41 -3.35,-0.67q-3.64,2.48 -7.39,5.22c-17.62,12.89 -36.82,30.01 -56.47,50.41q5.6,-1.61 11.04,-3.14l0.57,2.02q-7.11,2 -14.5,4.15q-7.95,8.36 -15.97,17.41c12.9,-3.9 25.41,-7.74 37.42,-11.54l0.64,2c-13.03,4.12 -26.64,8.29 -40.7,12.52q-7.15,8.17 -14.3,16.82c21.41,-6.03 42.15,-12.39 61.91,-19.3l0.7,1.99c-20.7,7.23 -42.47,13.87 -64.94,20.15q-4.68,5.72 -9.33,11.63q-1.41,1.79 -2.81,3.59c28.9,-6.89 57.01,-15.04 83.95,-25.3l0.75,1.96c-27.83,10.6 -56.89,18.94 -86.75,25.98q-5.01,6.5 -9.96,13.2c35.37,-6.3 69.91,-15.26 103.54,-29.07l0.8,1.94c-34.49,14.18 -69.92,23.26 -106.15,29.6q-4.01,5.46 -7.98,11.05c40.96,-4.28 81,-12.97 120.91,-30.51l0.85,1.92c-40.76,17.92 -81.63,26.64 -123.37,30.87q-3.11,4.43 -6.2,8.92c45.82,-0.92 90.44,-8.22 136.31,-29.64l0.89,1.9c-46.71,21.82 -92.11,29.07 -138.65,29.87q-2.33,3.43 -4.64,6.89c50.14,3.63 98.45,-1.16 150,-26.59l0.93,1.88c-52.39,25.85 -101.46,30.53 -152.27,26.72q-1.64,2.48 -3.27,4.99c54.06,9.23 105.23,8.04 162.21,-21.52l0.96,1.87c-57.82,29.99 -109.74,31.02 -164.42,21.57q-1.05,1.61 -2.09,3.23q2.32,0.63 4.62,1.23c55.97,14.67 108,17.04 168.53,-15.82l1,1.84c-61.15,33.2 -113.77,30.77 -170.07,16.01q-2.62,-0.69 -5.26,-1.41c-50.33,78.86 -90.24,170.61 -96.34,254.83c-4,55.06 -18.89,89.72 -40.65,109.29c-20.95,18.84 -48.07,23.54 -77.41,19.27c1.33,31.04 1.72,62.46 0.68,93.82l-2.1,-0.07c1.04,-31.45 0.64,-62.96 -0.7,-94.07q-0.72,-0.12 -1.44,-0.24q-5.83,-0.98 -11.76,-2.41c0.64,27.86 0.48,56.04 -0.85,84.16l-2.1,-0.1c1.34,-28.27 1.49,-56.58 0.83,-84.58q-6.65,-1.68 -13.4,-3.86c0.06,25.15 -0.57,50.55 -2.19,75.92l-2.1,-0.13c1.63,-25.57 2.26,-51.15 2.19,-76.48q-6.75,-2.24 -13.55,-4.94c-0.46,22.85 -1.51,45.9 -3.4,68.93l-2.1,-0.17c1.9,-23.26 2.96,-46.54 3.41,-69.59q-6.82,-2.76 -13.64,-5.91c-0.93,20.9 -2.37,41.98 -4.53,63.06l-2.09,-0.22c2.19,-21.33 3.63,-42.66 4.56,-63.79q-6.85,-3.22 -13.67,-6.78c-1.38,19.28 -3.2,38.72 -5.65,58.18l-2.09,-0.26c2.48,-19.7 4.32,-39.38 5.7,-58.9q-6.92,-2.85 -13.8,-6.05c-1.8,17.43 -3.96,35 -6.65,52.6l-2.08,-0.32c2.72,-17.8 4.91,-35.59 6.71,-53.22q-6.96,-3.28 -13.82,-6.83c-2.2,15.83 -4.71,31.78 -7.65,47.78l-2.07,-0.38c2.99,-16.21 5.52,-32.39 7.74,-48.43q-3.25,-1.7 -6.47,-3.46q-3.74,-1.6 -7.45,-3.27c-2.57,14.23 -5.4,28.57 -8.58,42.96l-2.05,-0.46c3.21,-14.53 6.06,-29.02 8.66,-43.4q-7.12,-3.24 -14.03,-6.68q-4.36,18.86 -9.39,37.97l-2.03,-0.53q5.12,-19.3 9.49,-38.41q-7.13,-3.58 -13.97,-7.28q-4.88,16.74 -10.25,33.7l-2,-0.64q5.46,-17.14 10.37,-34.08q-3.14,-1.71 -6.2,-3.42q-4.01,-1.72 -7.89,-3.44q-5.3,14.45 -10.94,29.12l-1.96,-0.75q5.67,-14.72 10.97,-29.23l-1.26,-0.57q-2.67,-0.81 -5.27,-1.61l-0.46,-0.07l-0.1,-0.01l-4.45,-0.65q-2.08,0.06 -4.11,0.14q-4.73,10.2 -9.59,20.55l-1.9,-0.9q4.53,-9.65 8.95,-19.18q-1.32,0.32 -2.62,0.64q-2.17,1.02 -4.29,2.05q-2.06,1.51 -4.08,3.03q-0.98,1 -1.95,2.01l-0.26,-0.24q-0.8,1.08 -1.6,2.18l-0.54,-0.4l-1.36,2.34l-1.82,-1.05zm196.66,61.18q6.14,1.49 12.16,2.51q0.5,0.09 1,0.17q-0.18,-4.16 -0.39,-8.31q-6.38,0.04 -12.94,-0.55q0.09,3.09 0.17,6.18zm-2.27,-6.38q0.08,2.92 0.16,5.85q-6.63,-1.69 -13.36,-3.89q-0.01,-1.93 -0.02,-3.86q6.66,1.22 13.22,1.9zm2.04,-1.92q6.54,0.59 12.9,0.57q-0.35,-6.86 -0.76,-13.69a115.98,115.98 0 0 1 -12.52,1.65q0.21,5.73 0.38,11.47zm-2.48,-11.32q0.21,5.55 0.37,11.12q-6.52,-0.68 -13.17,-1.93q-0.03,-4.51 -0.1,-9.02q0.66,0.02 1.31,0.04q5.85,0.13 11.59,-0.21zm2.01,-2.25a113.64,113.64 0 0 0 12.48,-1.66q-0.6,-9.92 -1.31,-19.76a108.26,108.26 0 0 1 -11.94,3.73q0.43,8.81 0.77,17.69zm-2.85,-17.19q0.42,8.64 0.76,17.34q-5.66,0.34 -11.46,0.2q-0.69,-0.01 -1.39,-0.04q-0.12,-7.67 -0.31,-15.31a123.03,123.03 0 0 0 12.4,-2.19zm1.97,-2.64a105.72,105.72 0 0 0 11.9,-3.78q-0.84,-11.47 -1.79,-22.82a110.88,110.88 0 0 1 -11.27,5.8q0.63,10.35 1.16,20.8zm-3.22,-19.91q0.62,10.16 1.14,20.42a120.39,120.39 0 0 1 -12.34,2.21q-0.24,-9.23 -0.58,-18.39a118.74,118.74 0 0 0 11.79,-4.24l-0.01,0zm1.92,-3.13a108.63,108.63 0 0 0 11.2,-5.89q-1.08,-12.81 -2.3,-25.42a124.47,124.47 0 0 1 -10.5,7.79q0.86,11.68 1.6,23.52zm-3.6,-22.21q0.83,11.47 1.55,23.11a116.25,116.25 0 0 1 -11.73,4.3q-0.4,-10.63 -0.9,-21.13a125.77,125.77 0 0 0 11.08,-6.28zm1.83,-3.72a122.55,122.55 0 0 0 10.44,-7.92q-1.37,-14.14 -2.83,-27.99q-4.72,5.12 -9.67,9.59q1.08,13.03 2.06,26.32zm-4.02,-24.56q1.05,12.82 2.01,25.89a123.52,123.52 0 0 1 -11.01,6.36q-0.59,-12.12 -1.29,-24.05q5.24,-3.8 10.29,-8.2zm1.74,-4.4q4.91,-4.55 9.59,-9.75q-1.63,-15.39 -3.32,-30.36q-4.3,5.83 -8.8,11.07q1.29,14.32 2.53,29.04zm-4.45,-26.85q1.28,14.13 2.49,28.63q-5,4.47 -10.21,8.32q-0.8,-13.68 -1.7,-27.07q4.8,-4.67 9.42,-9.88zm1.65,-5.13q4.46,-5.32 8.72,-11.22q-1.86,-16.46 -3.71,-32.33q-3.89,6.25 -7.94,12q1.45,15.49 2.93,31.55zm-4.8,-28.93q1.44,15.31 2.89,31.17q-4.58,5.29 -9.34,10q-1.02,-15.27 -2.07,-30.08q4.33,-5.31 8.52,-11.09zm1.56,-5.86q4.01,-5.82 7.86,-12.13q-1.99,-17.27 -3.85,-33.71q-3.52,6.3 -7.15,12.21q1.44,15.73 3,32.22q0.07,0.7 0.14,1.41zm-4.98,-30.65q1.33,14.48 2.77,29.59q0.17,1.86 0.35,3.72q-4.14,5.86 -8.44,11.22q-0.24,-3.5 -0.49,-6.97q-0.93,-13.17 -1.82,-25.9q3.86,-5.65 7.63,-11.66zm1.52,-6.49q3.59,-5.97 7.07,-12.3q-1.97,-17.69 -3.62,-34.28q-3.19,5.91 -6.42,11.57q1.31,16.92 2.97,35.01zm-4.83,-31.79q1.34,16.85 3,34.81q-3.73,6.06 -7.55,11.74q-1.24,-18.13 -2.22,-35.2q3.41,-5.55 6.77,-11.35zm1.57,-6.97q3.19,-5.67 6.34,-11.58q-0.4,-4.22 -0.78,-8.36q-1.2,-13.16 -2.06,-25.48q-2.86,5.04 -5.7,9.95q0.49,10.65 1.25,21.96q0.43,6.65 0.95,13.51zm-4.15,-32.13q0.45,9.15 1.1,18.76q0.54,8.16 1.2,16.64q-3.32,5.8 -6.69,11.36q-0.6,-11.02 -1.02,-21.51q-0.31,-7.8 -0.5,-15.29q2.95,-4.92 5.91,-9.96zm1.77,-7.24q2.81,-4.87 5.62,-9.87c-0.66,-10.27 -1.11,-20.06 -1.29,-29.31q-2.48,2.82 -4.86,5.63c-0.17,10.47 0.04,21.68 0.53,33.55zm-2.67,-31.01c-0.1,10.76 0.17,22.25 0.72,34.39q-2.91,5 -5.82,9.87c-0.27,-13.29 -0.2,-25.79 0.32,-37.39l3.37,-5.15q0.7,-0.86 1.41,-1.72zm2.2,-5.85q2.33,-2.72 4.75,-5.43q-0.05,-4.17 -0.03,-8.19q-2.22,2.14 -4.38,4.28q-0.23,4.56 -0.34,9.34zm-1.87,-7.14q-0.2,4.72 -0.28,9.67q-1.58,1.87 -3.12,3.74l-0.04,0.05l-0.03,0.05l-1.44,2.19q0.32,-5.77 0.8,-11.22l0.48,-0.63l0.63,-0.81q1.48,-1.52 3,-3.04zm2.73,-10.49q1.96,-1.89 3.98,-3.73l0.02,-0.02l0,-0.16l0,-0.12q-2.02,1.72 -3.97,3.5q-0.01,0.26 -0.04,0.53l0.01,0zm-2.23,1.59q-0.02,0.31 -0.04,0.62q-1.83,1.81 -3.61,3.66q0.05,-0.39 0.1,-0.77q1.74,-1.78 3.55,-3.51zm2.53,-5.18q1.87,-1.67 3.8,-3.27q0.03,-0.74 0.06,-1.48q-1.89,1.54 -3.71,3.16q-0.08,0.79 -0.15,1.59zm-2.16,0.51q-0.06,0.78 -0.13,1.56q-1.69,1.57 -3.33,3.19q0.11,-0.8 0.23,-1.6q1.58,-1.61 3.23,-3.15zm2.63,-5.17q1.73,-1.48 3.53,-2.89q0.06,-1.16 0.13,-2.3q-1.73,1.4 -3.39,2.89q-0.14,1.14 -0.27,2.3zm-2.1,-0.11q-0.12,1.07 -0.23,2.15q-1.51,1.36 -2.98,2.78q0.18,-1.05 0.37,-2.09q1.39,-1.46 2.83,-2.84l0.01,0zm2.78,-5.34q1.56,-1.32 3.17,-2.58q0.1,-1.42 0.23,-2.81q-1.54,1.29 -3,2.67q-0.22,1.34 -0.41,2.72l0.01,0zm-2.08,-0.3q-0.17,1.19 -0.32,2.41q-1.28,1.16 -2.52,2.38q0.23,-1.14 0.47,-2.26q1.16,-1.3 2.36,-2.53l0.01,0zm3.02,-5.75q1.34,-1.17 2.73,-2.28q0.15,-1.52 0.32,-3.01q-1.29,1.19 -2.53,2.45q-0.28,1.4 -0.53,2.84l0.01,0zm-2.14,0.02q-0.19,1.13 -0.37,2.27q-0.98,0.94 -1.94,1.91q0.26,-1.04 0.53,-2.07q0.87,-1.08 1.78,-2.11zm3.41,-6.53q1.07,-0.99 2.17,-1.93q0.19,-1.44 0.4,-2.85q-1,1.05 -1.96,2.15q-0.32,1.29 -0.61,2.63zm-2.38,1.06q-0.16,0.79 -0.32,1.59q-0.57,0.59 -1.13,1.2q0.21,-0.71 0.44,-1.4q0.5,-0.7 1.01,-1.39zm4.12,-8q0.69,-0.7 1.4,-1.37q0.19,-1.1 0.4,-2.18q-0.62,0.77 -1.22,1.57l-0.02,0.07q-0.29,0.94 -0.56,1.91zm2.5,-7.62l0.17,-0.2c0.04,-0.14 0.07,-0.3 0.1,-0.44l-0.09,0.15q-0.09,0.25 -0.18,0.49zm5.75,-11.77q-0.19,0.54 -0.39,1.09a45.29,45.29 0 0 1 4.89,-4.42c8.93,-6.94 20.34,-10.23 34.69,-9.44l0.04,0q14.87,1.29 29.15,3.05q2.62,-1.84 5.27,-3.68q-13.98,-2.68 -28.62,-4.93c-14.49,-1.98 -25.62,0.42 -34.12,6.5a41.61,41.61 0 0 0 -10.9,11.83l-0.01,0zm77.85,-12.58q-2.25,1.74 -4.48,3.49q1.36,0.17 2.71,0.35q2.58,-1.59 5.18,-3.16q-1.7,-0.34 -3.41,-0.68zm6.06,-0.92q-1.91,-0.4 -3.85,-0.78q2.36,-1.81 4.74,-3.61q2.23,0.6 4.45,1.2q-2.68,1.58 -5.33,3.18l-0.01,0.01zm0.39,2.22q-2.46,1.48 -4.9,2.98q2.51,0.33 5,0.67q2.48,-1.3 4.98,-2.6q-2.53,-0.53 -5.08,-1.05zm8.03,-0.46q-2.68,-0.58 -5.37,-1.14q2.54,-1.52 5.11,-3.04q2.62,0.73 5.21,1.46l-0.18,0.16l-0.22,0.17l-0.15,0.13q-2.2,1.12 -4.4,2.25l0,0.01zm1.92,2.56q-1.5,1.26 -2.98,2.53l1.58,0.23q2.35,-1.02 4.7,-2.04q-1.64,-0.37 -3.3,-0.72zm6.61,-0.7q-2.28,-0.51 -4.58,-1.01q0.8,-0.67 1.62,-1.35q1.29,-0.65 2.58,-1.31q2.69,0.77 5.35,1.56q-2.48,1.05 -4.96,2.11l-0.01,0zm0.2,2.2q-2.14,0.92 -4.27,1.84q2.29,0.34 4.56,0.68q2.15,-0.74 4.31,-1.48q-2.28,-0.53 -4.59,-1.04l-0.01,0zm7.95,-0.35q-2.31,-0.53 -4.64,-1.06q2.31,-0.99 4.63,-1.96q1.26,0.37 2.52,0.75q-1.25,1.13 -2.5,2.26l-0.01,0.01zm0.6,2.3q-0.87,0.79 -1.74,1.59l1.98,0.31q1.88,-0.48 3.76,-0.97q-1.99,-0.48 -3.99,-0.94l-0.01,0.01zm8.38,-0.19q-2.34,-0.56 -4.69,-1.11q2.12,-0.72 4.24,-1.43q2.36,0.73 4.7,1.46l-4.25,1.08zm0.02,2.17l-2.97,0.75l3.29,0.54l2.96,-0.5q-1.63,-0.41 -3.28,-0.8l0,0.01zm5.56,-0.82l-1.19,-0.3l2.02,-0.51l-0.83,0.81zm2.96,0.71l-0.54,-0.13q0.71,-0.69 1.43,-1.38q1.4,0.44 2.8,0.89l-3.69,0.62zm-0.08,2.15l-1.76,0.3l2.1,0.35l1.72,-0.14l-2.06,-0.51zm8.58,-0.04q-1.68,-0.42 -3.37,-0.84l2.89,-0.49q1.68,0.54 3.34,1.09l-0.75,0.06l0,0l-0.02,0l-2.09,0.18zm8.47,2.13l-2.17,-0.55l1.67,-0.14l2.1,0.69l-1.6,0zm46.75,11.9q-2.81,-0.7 -5.63,-1.4q3,0.48 5.98,0.95l-0.35,0.45zm-25.12,-4.19q5.44,1.4 10.8,2.76c-48.79,59.93 -90.06,129.16 -106.55,193.83l0,0.02l0,0.02c-9.24,42.53 -24.33,72.38 -42.89,93.1a128.88,128.88 0 0 1 -10.72,10.67q-1.39,-14.36 -2.89,-28.4c19.08,-21.5 35.06,-51.41 45.77,-93.11c18.22,-59.69 58.85,-123.38 106.49,-178.9l-0.01,0.01zm-5.26,-1.35l1.1,0.28l0,0l1.9,0.49c-47.49,55.5 -88,119.13 -106.24,178.88l-0.01,0.02l0,0.02c-10.4,40.47 -25.75,69.68 -44.05,90.81q-1.66,-15.59 -3.38,-30.74c14.41,-20.17 26.96,-45.54 36.67,-77.73c19.8,-54.6 59.4,-112.53 105.46,-163.5q4.3,0.72 8.55,1.45l0,0.02zm41.16,10.32l0.58,0.14l-0.03,0.04l-0.55,-0.18zm1.95,-1.7q-5.22,-1.23 -10.5,-2.53l0.5,-0.63q5.59,0.86 11.13,1.65q-0.56,0.74 -1.12,1.5l-0.01,0.01zm0.86,2.36l-0.16,0.21q4.96,1.62 9.85,3.17l0.72,-1.01q-5.18,-1.15 -10.41,-2.38l0,0.01zm11.74,0.52q-5.15,-1.14 -10.36,-2.36q0.63,-0.84 1.27,-1.69q5.5,0.77 10.96,1.46q-0.93,1.28 -1.86,2.57l-0.01,0.02zm0.9,2.34l-0.84,1.19q4.78,1.5 9.52,2.92q0.68,-1 1.36,-2q-4.99,-1.01 -10.03,-2.12l-0.01,0.01zm11.32,0.23q-4.97,-1 -9.98,-2.08q1,-1.4 2.01,-2.78q3.74,0.46 7.46,0.87q1.52,0.16 3.04,0.32q-1.26,1.82 -2.52,3.66l-0.01,0.01zm0.95,2.33q-0.74,1.09 -1.48,2.18q4.82,1.43 9.59,2.76q0.98,-1.53 1.96,-3.05q-1.82,-0.32 -3.64,-0.66q-3.2,-0.6 -6.42,-1.24l-0.01,0.01zm11.31,-0.02q-2.24,-0.39 -4.5,-0.81q-2.75,-0.51 -5.51,-1.06q1.33,-1.93 2.67,-3.86q5.25,0.53 10.48,0.95q-1.57,2.37 -3.13,4.77l-0.01,0.01zm-164,-38.18c-9.99,-1.94 -20.22,-3.74 -30.72,-5.34l-0.02,0c-14.87,-2.03 -26.58,0.4 -35.64,6.87a40.07,40.07 0 0 0 -5.8,5.07a37.79,37.79 0 0 1 12.15,-13.53c8.54,-5.59 19.93,-7.19 34.97,-3.99q15.67,3.34 30.46,7.23q-2.7,1.82 -5.39,3.68l-0.01,0.01zm-95.25,55.4q0.4,-0.58 0.8,-1.15q-0.11,0.47 -0.21,0.95q-0.43,0.48 -0.85,0.97q0.14,-0.4 0.27,-0.78l-0.01,0.01zm-1.9,6.12q0.79,-1.03 1.61,-2.04q-0.16,0.83 -0.31,1.67q-0.86,0.91 -1.7,1.84q0.2,-0.75 0.41,-1.48l-0.01,0.01zm-1.57,6.03q1.08,-1.31 2.21,-2.58q-0.14,0.88 -0.28,1.78q-1.18,1.2 -2.32,2.43q0.2,-0.83 0.39,-1.65l0,0.02zm-1.29,5.78q1.33,-1.52 2.7,-3q-0.1,0.73 -0.19,1.47q-1.42,1.45 -2.79,2.94q0.15,-0.72 0.29,-1.42l-0.01,0.01zm-1.02,5.37q1.53,-1.73 3.1,-3.41q-0.03,0.24 -0.05,0.48q-0.02,0.15 -0.04,0.31q-1.6,1.72 -3.16,3.47q0.08,-0.44 0.16,-0.87l-0.01,0.02zm-1.84,12.29q1.95,-2.63 3.94,-5.25q-0.44,5.64 -0.71,11.6q-2.33,3.55 -4.62,7.07q0.58,-6.94 1.39,-13.43l0,0.01zm-1.73,17.79q2.38,-3.65 4.8,-7.34c-0.43,11.66 -0.42,24.14 -0.1,37.36q-3.03,5.02 -6.04,9.92c0.05,-14.22 0.45,-27.57 1.34,-39.95l0,0.01zm-1.35,43.94q3.07,-4.95 6.14,-10.02q0.17,5.92 0.41,12.02q0.48,11.96 1.19,24.59q-3.52,5.72 -7.07,11.17q-0.46,-15.07 -0.62,-29.21q-0.04,-4.34 -0.04,-8.57l-0.01,0.02zm0.78,41.41q3.61,-5.46 7.17,-11.17q0.98,16.93 2.23,34.91q-3.98,5.79 -8.05,11.21q-0.77,-17.99 -1.34,-34.97l-0.01,0.02zm1.49,38.23q4.12,-5.39 8.14,-11.15q0.8,11.54 1.65,23.45l0,0q0.32,4.5 0.64,9.04q-4.44,5.41 -9.01,10.35q-0.27,-5.9 -0.53,-11.71l0,0l0,-0.03l0,-0.04q-0.45,-10.1 -0.88,-19.93l-0.01,0.02zm1.55,34.63q4.61,-4.9 9.1,-10.25q1.02,14.6 2.03,29.65q-4.88,4.7 -9.94,8.87q-0.56,-14.34 -1.19,-28.28l0,0.01zm1.3,30.9q5.08,-4.12 10.01,-8.77q0.87,13.18 1.66,26.65q-5.31,3.79 -10.79,7.01q-0.39,-12.58 -0.88,-24.9l0,0.01zm0.95,27.28q5.52,-3.19 10.86,-6.93q0.68,11.72 1.26,23.64q-5.69,2.77 -11.55,4.96q-0.23,-10.93 -0.56,-21.69l-0.01,0.02zm0.62,23.9q5.88,-2.17 11.61,-4.9q0.48,10.3 0.87,20.74q-6.01,1.73 -12.18,2.86q-0.1,-9.41 -0.29,-18.72l-0.01,0.02zm0.32,20.83q6.19,-1.13 12.24,-2.84q0.33,8.98 0.57,18.04q-3.36,0.37 -6.76,0.58q-2.97,0.18 -5.97,0.24q0,-8.05 -0.08,-16.03l0,0.01zm6.18,17.87q3.36,-0.2 6.68,-0.56q0.19,7.47 0.3,14.98q-6.52,-0.31 -13.15,-1.16q0.06,-6.52 0.06,-13.01q3.08,-0.08 6.11,-0.26l0,0.01zm-6.19,15.37q6.65,0.84 13.21,1.15q0.06,4.35 0.1,8.7q-6.66,-1.31 -13.4,-3.13q0.06,-3.38 0.1,-6.74l-0.01,0.02zm-0.13,8.89q6.76,1.8 13.45,3.11q0.01,1.79 0.02,3.58q-6.72,-2.26 -13.5,-4.97q0.01,-0.43 0.01,-0.87t0.03,-0.87l-0.01,0.02zm20.81,-390.15q0.09,-0.31 0.18,-0.62a45.06,45.06 0 0 1 7.81,-7.85c8.46,-6.57 19.34,-9.77 33.28,-9q13.63,1.18 26.76,2.77q-2.55,1.81 -5.08,3.64q-13.62,-0.62 -27.63,-0.86l-0.05,0c-13.83,0.45 -24.93,4.6 -33.75,12.01q-1.04,0.87 -2.03,1.79q0.26,-0.97 0.52,-1.89l-0.01,0.01zm69.11,-10.77q2.06,-1.66 4.15,-3.3q1.1,0.14 2.19,0.28q-2.49,1.54 -4.97,3.1l-1.37,-0.08zm5.02,0.27q2.3,-1.44 4.63,-2.87q2.33,0.31 4.65,0.62q-2.37,1.25 -4.72,2.51q-2.27,-0.15 -4.55,-0.28l-0.01,0.02zm8.57,0.5q2.14,-1.14 4.28,-2.26l1.6,0.22q-1.3,1.12 -2.6,2.24q-1.63,-0.11 -3.27,-0.21l-0.01,0.01zm7.8,-3.89l0.2,0.03l1.02,-0.88l-0.87,0.45l-0.67,0.35l0.32,0.05zm0.76,2.31l0.08,-0.07l0.06,0.01l-0.14,0.06zm0.31,2.16q1.89,-0.83 3.77,-1.65q1.98,0.29 3.95,0.58q-1.91,0.67 -3.82,1.34q-1.93,-0.15 -3.89,-0.28l-0.01,0.01zm13.87,-0.13l-1.7,-0.26q-1.5,0.52 -3.01,1.05q1.59,0.11 3.17,0.23l0.61,-0.15l0.93,-0.87zm8.72,1.37l-2,-0.32l-1.84,0.47l2.01,0.17l1.83,-0.32zm56.63,7.45q4.97,0.84 9.89,1.66l0.71,-0.86q-5.37,-0.41 -10.77,-0.86l0.17,0.06zm-19.72,-1.25l-5.51,-0.95l-1.84,-0.16l-0.02,0l-0.05,0l-5.17,-0.45c-44.01,46.18 -82.13,98.06 -103.2,147.29a322.28,322.28 0 0 1 -27.98,60.12l0.18,1.55l0,0.05q1.76,15.23 3.57,31.05c13.71,-19.67 25.67,-44.25 35.02,-75.22l0.01,-0.03l0.01,-0.02c19.78,-54.58 59.17,-112.35 104.99,-163.24l-0.01,0.01zm32.01,3.3q5.64,0.92 11.21,1.79q0.8,-1.01 1.6,-2.01q-5.94,-0.39 -11.93,-0.84l-0.88,1.06zm13.6,2.16q5.57,0.86 11.08,1.64q1.21,-1.6 2.43,-3.18q-5.85,-0.3 -11.75,-0.68q-0.87,1.1 -1.75,2.21l-0.01,0.01zm13.47,1.98q5.48,0.76 10.92,1.43q1.6,-2.18 3.21,-4.36q-1.33,-0.04 -2.67,-0.09q-4.42,-0.16 -8.87,-0.38q-1.28,1.68 -2.58,3.38l-0.01,0.02zm19.58,2.45q2.09,0.23 4.17,0.45q1.94,-2.77 3.89,-5.52q-5.47,-0.07 -10.96,-0.23q-1.69,2.28 -3.37,4.58q3.15,0.36 6.28,0.71l-0.01,0.01zm6.57,0.69q5.23,0.51 10.43,0.92q2.23,-3.36 4.48,-6.67q-5.42,0.06 -10.86,0.02q-2.02,2.83 -4.04,5.71l-0.01,0.02zm-259.19,380.97q-0.01,0.72 -0.03,1.45q-5.65,-2.31 -11.32,-4.89q5.69,1.87 11.35,3.44zm0.12,-8.6q-0.04,3.21 -0.08,6.43q-6.76,-1.89 -13.56,-4.22q0.09,-2.27 0.18,-4.55q6.76,1.4 13.46,2.34zm0.09,-14.82q-0.01,6.34 -0.07,12.7q-6.67,-0.93 -13.4,-2.35q0.2,-5.4 0.35,-10.78q6.6,0.46 13.12,0.43zm-0.08,-17.78q0.07,7.81 0.08,15.67q-6.48,0.05 -13.06,-0.43q0.19,-6.85 0.32,-13.67q5.45,-0.45 10.83,-1.27q0.91,-0.14 1.83,-0.3zm-0.31,-20.46q0.19,9.12 0.29,18.33q-1.07,0.18 -2.13,0.35q-5.2,0.8 -10.47,1.24q0.15,-8.16 0.22,-16.26l0.47,-0.12q5.86,-1.52 11.62,-3.53l0,-0.01zm-0.6,-23.47q0.32,10.56 0.55,21.26q-5.94,2.12 -12.03,3.69q0.08,-9.66 0.07,-19.2q5.78,-2.62 11.42,-5.75l-0.01,0zm-0.93,-26.81q0.47,12.1 0.86,24.44q-5.6,3.18 -11.34,5.81q-0.02,-11.35 -0.12,-22.52q5.36,-3.62 10.6,-7.73zm-1.27,-30.43q0.6,13.72 1.17,27.82q-5.2,4.16 -10.53,7.82q-0.13,-13.25 -0.33,-26.18q4.9,-4.5 9.69,-9.45l0,-0.01zm-0.74,-16.56l0,0.05l0,0.03l0,0l0,0.05q0.3,6.71 0.61,13.53q-4.75,5 -9.61,9.54q-0.12,-7.94 -0.25,-15.74l0,-0.08q-0.11,-7.22 -0.22,-14.32q4.38,-5.15 8.68,-10.66q0.39,8.71 0.79,17.61l0,-0.01zm-2.29,-55.4q0.57,16.8 1.36,34.57q-4.25,5.54 -8.59,10.71q-0.26,-17.57 -0.38,-34.25q3.83,-5.39 7.61,-11.03zm-0.87,-41.06q0.02,2.59 0.04,5.21q0.15,15.57 0.71,32.25q-3.73,5.64 -7.5,11.01c-0.05,-12.68 0.02,-24.92 0.29,-36.64q0.02,-0.86 0.04,-1.7q3.21,-5 6.43,-10.13l-0.01,0zm1.09,-43.69c-0.79,12.39 -1.1,25.68 -1.1,39.73q-3.15,5.08 -6.3,10.02c0.44,-15.06 1.25,-29.23 2.59,-42.36q2.39,-3.68 4.81,-7.39zm1.56,-17.98q-0.75,6.63 -1.27,13.68q-2.31,3.56 -4.61,7.07q0.93,-8.11 2.16,-15.66q1.85,-2.55 3.72,-5.09zm1,-7.92l-0.01,0.09q-1.53,1.87 -3.03,3.77l0.04,-0.19q1.48,-1.85 3.01,-3.67l-0.01,0zm0.71,-4.72q-0.06,0.39 -0.12,0.77q-1.33,1.54 -2.62,3.1q0.08,-0.36 0.16,-0.72q1.28,-1.59 2.59,-3.15l-0.01,0zm0.89,-5.13q-0.1,0.55 -0.2,1.11q-1.07,1.22 -2.12,2.46q0.13,-0.49 0.26,-0.97q1.02,-1.32 2.07,-2.6l-0.01,0zm1.05,-5.29q-0.11,0.51 -0.21,1.02q-0.74,0.85 -1.46,1.72q0.12,-0.4 0.24,-0.81q0.72,-0.97 1.44,-1.93l-0.01,0zm1.16,-5.03l-0.02,0.07c-0.02,0.07 -0.03,0.13 -0.05,0.2q-0.27,0.32 -0.53,0.65l0.01,-0.05q0.3,-0.44 0.59,-0.87zm20.87,-38.65q-0.34,1.55 -0.65,3.15c8.42,-7.09 18.71,-11.6 31.22,-13.2l0.03,0l0.04,0q13.2,-0.81 26.16,-1.26q2.41,-1.78 4.85,-3.56q-12.29,-0.52 -24.9,-0.74c-13.4,0.45 -24.03,4.45 -32.44,11.52a50,50 0 0 0 -4.31,4.09zm68.08,-14.58q-1.48,1.2 -2.95,2.4q1.85,-1.18 3.71,-2.36l-0.76,-0.04zm4.4,0.23q-2.13,1.34 -4.25,2.68q2.01,-0.05 4.01,-0.1q2.17,-1.18 4.35,-2.36q-2.05,-0.11 -4.11,-0.22zm8.12,0.45q-1.89,1.02 -3.77,2.03q1.84,-0.04 3.68,-0.07q1.92,-0.86 3.85,-1.73q-1.87,-0.11 -3.76,-0.23zm8.28,0.52l-1.59,0.71l-0.33,0.29l-0.4,0.34l2.29,-0.03q1.55,-0.55 3.09,-1.1l-3.06,-0.21zm8.33,0.58l-1.88,0.66l0.75,-0.01l1.13,-0.01l0.95,-0.25l0.6,-0.16l0.36,-0.1l-1.91,-0.13zm72.56,3.93q-2.95,-0.24 -5.92,-0.5l-0.56,-0.19l-1.65,-0.56q4.63,0 9.23,-0.02q-0.55,0.64 -1.1,1.27zm-39.28,-1.28l3.08,0.27l3.68,0.32c-43.66,46.02 -81.46,97.63 -102.47,146.73l-0.01,0.03l-0.01,0.03a322.86,322.86 0 0 1 -26.41,57.44q-2.01,-17.4 -3.87,-33.93a412.25,412.25 0 0 0 19.46,-40.97c21.89,-43.47 57.88,-88.88 99.15,-129.92l2.33,0l5.07,0zm54,2.45q-6.03,-0.46 -12.12,-0.96q0.65,-0.75 1.31,-1.5q6.5,-0.03 12.95,-0.11q-1.08,1.28 -2.15,2.57l0.01,0zm14.45,1.01q-5.91,-0.38 -11.88,-0.82q1.17,-1.4 2.34,-2.79q6.33,-0.09 12.63,-0.23q-1.55,1.91 -3.09,3.84zm14.27,0.81q-5.84,-0.29 -11.7,-0.65q1.63,-2.04 3.28,-4.07q5.22,-0.13 10.4,-0.31l1.99,-0.08q-2,2.55 -3.98,5.11l0.01,0zm14.05,0.57q-2.06,-0.06 -4.11,-0.14q-3.69,-0.13 -7.38,-0.3q2.08,-2.69 4.17,-5.34q6.07,-0.25 12.11,-0.58q-2.41,3.16 -4.8,6.36l0.01,0zm13.47,0.28q-5.44,-0.05 -10.9,-0.2q2.48,-3.31 4.98,-6.59q5.7,-0.33 11.38,-0.75q-2.75,3.74 -5.47,7.54l0.01,0zm13.38,-0.03q-5.4,0.08 -10.81,0.05q2.81,-3.92 5.64,-7.77q5.6,-0.44 11.18,-0.98q-3.03,4.32 -6.02,8.7l0.01,0zm-283.77,62.81q0.63,-0.9 1.26,-1.8q-0.04,0.18 -0.08,0.35q-0.61,0.77 -1.21,1.54l0.03,-0.09zm-1.82,5.97q0.96,-1.32 1.94,-2.62l-0.08,0.42l-0.01,0.05q-0.98,1.22 -1.94,2.46l0.05,-0.17l0.04,-0.14zm-1.54,5.7q1.23,-1.66 2.49,-3.3l-0.03,0.2q-1.26,1.63 -2.5,3.28l0.04,-0.18zm1.63,1.59l0.03,-0.19q-1.5,1.99 -2.97,3.99q-0.05,0.22 -0.1,0.44q1.51,-2.12 3.04,-4.25l0,0.01zm-2.7,20.38q0.85,-8.14 1.98,-15.76q-1.74,2.44 -3.45,4.88q-1.78,8.62 -3.14,17.97q2.29,-3.53 4.61,-7.09zm-5.3,12.01q2.42,-3.71 4.86,-7.47c-1.21,13.09 -1.92,27.13 -2.3,41.97q-3.32,5.16 -6.63,10.18l0.02,-0.31q0.03,-0.45 0.05,-0.89c0.92,-15.42 2.19,-29.96 4,-43.48zm-4.3,48.83q3.38,-5.08 6.77,-10.31c-0.26,12.14 -0.31,24.81 -0.25,37.92q-3.98,5.6 -8,10.93c0.35,-13.32 0.81,-26.19 1.47,-38.54l0.01,0zm-1.57,42.13q4.07,-5.34 8.11,-10.95q0.11,16.46 0.4,33.78q-4.55,5.33 -9.18,10.28q0.28,-16.94 0.66,-33.11l0.01,0zm-0.72,36.22q4.68,-4.94 9.28,-10.24q0.1,6.07 0.2,12.22l0,0.04q0.13,8.61 0.27,17.39q-5.06,4.61 -10.22,8.78q0.17,-9.62 0.32,-19.06l0,0l0,-0.12q0.07,-4.53 0.14,-9.01l0.01,0zm-0.52,30.93q5.2,-4.15 10.31,-8.73q0.19,12.7 0.32,25.7q-5.5,3.67 -11.12,6.85q0.06,-2.33 0.11,-4.65q0.21,-9.67 0.37,-19.17l0.01,0zm-0.55,26.27q5.66,-3.17 11.2,-6.79q0.1,10.94 0.12,22.07q-4.15,1.84 -8.36,3.42q-1.75,0.67 -3.51,1.29q0.31,-10.07 0.55,-19.99zm3.7,20.67q3.83,-1.45 7.62,-3.1q0,9.35 -0.07,18.8q-6.19,1.52 -12.48,2.54q0.34,-8.38 0.61,-16.68q2.16,-0.74 4.32,-1.56zm-5.02,20.39q6.31,-1.02 12.55,-2.51q-0.08,7.91 -0.22,15.9q-6.44,0.46 -12.96,0.43q0.34,-6.93 0.62,-13.82l0.01,0zm-0.74,15.93q6.55,0.01 13.03,-0.43q-0.13,6.65 -0.31,13.35q-6.65,-0.55 -13.34,-1.55q0.33,-5.7 0.62,-11.37zm-0.75,13.47q6.72,0.99 13.41,1.55q-0.15,5.23 -0.34,10.49q-6.79,-1.49 -13.61,-3.41q0.28,-4.32 0.54,-8.63zm-0.68,10.77q6.84,1.91 13.67,3.4q-0.08,2.14 -0.17,4.28q-6.84,-2.4 -13.68,-5.18q0.09,-1.25 0.17,-2.5l0.01,0zm48.76,-359.14q0.25,-1.72 0.53,-3.39q0.22,-0.2 0.45,-0.4c8.36,-7.57 18.73,-12.38 31.61,-14.04q11.6,-0.7 23.02,-1.13q-2.29,1.7 -4.55,3.42q-12.34,1.5 -24.75,3.28l-0.05,0.01l-0.04,0.01a66.64,66.64 0 0 0 -26.22,12.24zm55.21,-16.04q2.05,-1.54 4.1,-3.06l0.34,-0.01l0.41,-0.02q-1.75,1.46 -3.49,2.93l-1.36,0.16zm7.1,-5.27l0.4,-0.01q1.58,-1.29 3.16,-2.58q-1.79,1.29 -3.57,2.59l0.01,0zm0.55,4.38q1.86,-1.21 3.73,-2.41q1.71,-0.05 3.42,-0.1q-1.93,1.07 -3.85,2.14q-1.66,0.18 -3.3,0.37zm8.7,-0.96q1.51,-0.83 3.03,-1.66q1.43,-0.03 2.86,-0.06q-1.56,0.71 -3.12,1.43l-2.77,0.29zm50.34,-2.13q-3.04,0 -6.1,0.01q-5.29,0.46 -10.6,0.94c-37.44,35.33 -70.32,73.7 -92.27,110.77q-5.26,10.96 -10.67,21.13q1.6,16.59 3.59,34.38a413.52,413.52 0 0 0 17.94,-38.15l0.01,-0.04l0.02,-0.03c21.75,-43.19 57.3,-88.23 98.07,-129.01l0.01,0zm35.3,-2.06l1.15,0q0.77,-0.84 1.53,-1.67l-6.11,0.52q1.71,0.58 3.42,1.15l0.01,0zm4.01,0q6.67,0 13.3,-0.04q1.38,-1.58 2.78,-3.14q-7.14,0.64 -14.3,1.25q-0.9,0.96 -1.79,1.93l0.01,0zm16.11,-0.05q6.46,-0.04 12.88,-0.13q1.94,-2.3 3.9,-4.57q-6.87,0.67 -13.76,1.29q-1.52,1.7 -3.03,3.41l0.01,0zm15.67,-0.16q6.3,-0.1 12.57,-0.25q2.44,-3 4.9,-5.95l-1.37,0.14q-5.97,0.63 -11.97,1.22q-2.08,2.41 -4.14,4.83l0.01,0.01zm23.91,-0.59q1.89,-0.07 3.77,-0.14q2.9,-3.67 5.83,-7.29q-6.5,0.78 -13.03,1.49q-2.58,3.08 -5.14,6.2q4.29,-0.11 8.56,-0.26l0.01,0zm6.54,-0.26q6.05,-0.25 12.07,-0.6q3.31,-4.31 6.65,-8.56q-6.31,0.85 -12.66,1.63q-3.05,3.74 -6.06,7.53zm14.85,-0.76q5.67,-0.34 11.32,-0.77q3.62,-4.91 7.27,-9.73q-5.84,0.89 -11.71,1.7q-3.47,4.36 -6.89,8.8l0.01,0zm14.1,-1q5.57,-0.45 11.12,-1q3.86,-5.46 7.77,-10.81q-5.69,0.97 -11.4,1.85q-3.78,4.93 -7.51,9.97l0.02,-0.01zm-303.23,383.45q-0.07,1.04 -0.14,2.07q-4.4,-2.33 -8.76,-4.8q4.45,1.44 8.9,2.73zm0.67,-10.5q-0.25,4.17 -0.53,8.35q-6.89,-2 -13.76,-4.37q0.33,-3.27 0.64,-6.54q6.82,1.47 13.65,2.56zm0.73,-13.17q-0.28,5.52 -0.61,11.06q-6.79,-1.07 -13.58,-2.55q0.43,-4.57 0.82,-9.12q6.69,0.51 13.37,0.61zm0.72,-15.58q-0.28,6.72 -0.62,13.48q-6.63,-0.08 -13.3,-0.6q0.49,-5.71 0.94,-11.4q6.51,-0.52 12.99,-1.48l-0.01,0zm0.69,-18.43q-0.27,8.1 -0.6,16.29q-6.43,0.98 -12.9,1.5q0.54,-7.08 1.03,-14.1q6.27,-1.62 12.47,-3.69zm0.62,-21.79q-0.24,9.71 -0.55,19.55q-6.16,2.09 -12.39,3.72q0.6,-8.72 1.13,-17.34q3.79,-1.75 7.55,-3.68q2.14,-1.09 4.27,-2.25l-0.01,0zm0.55,-25.76q-0.16,8.65 -0.35,17.44q-0.07,2.94 -0.14,5.89q-2.63,1.46 -5.28,2.81q-3.21,1.65 -6.44,3.16q0.42,-6.92 0.81,-13.78q0.21,-3.73 0.42,-7.44q5.53,-3.84 10.98,-8.07l0,-0.01zm0.4,-23.84l0,0.2l0,0.18q-0.17,10.26 -0.35,20.76q-5.4,4.27 -10.88,8.11q0.61,-11.08 1.18,-21.93q0.1,-1.98 0.21,-3.96q5,-4.77 9.95,-9.89q-0.05,2.87 -0.09,5.75l-0.01,0.64l-0.01,0.14zm0.79,-42.17q-0.38,15.9 -0.63,32.56q-4.89,5.14 -9.85,9.91q0.86,-16.08 1.76,-31.51q4.38,-5.35 8.73,-10.96l-0.01,0zm1.46,-41.52c-0.61,12.19 -1.04,24.87 -1.37,37.97q-4.28,5.6 -8.59,10.92c0.8,-13.18 1.7,-25.97 2.76,-38.28q3.6,-5.23 7.21,-10.61l-0.01,0zm3.95,-48.18c-1.53,12.34 -2.63,25.47 -3.46,39.27q-0.14,2.39 -0.27,4.8q-3.52,5.3 -7.04,10.45q0.39,-4.28 0.81,-8.48c1.36,-13.5 2.99,-26.34 5.02,-38.42q2.46,-3.79 4.95,-7.62l-0.01,0zm3.48,-22.68q-1.62,8.6 -2.86,17.86q-2.33,3.58 -4.63,7.14q1.94,-10.64 4.36,-20.42q1.56,-2.29 3.14,-4.58l-0.01,0zm1.14,-5.71l-0.12,0.57q-1.3,1.85 -2.58,3.7q0.1,-0.36 0.2,-0.72q1.25,-1.78 2.5,-3.55zm1.14,-5.17l0,0l-0.07,0.08l0.07,-0.08zm34.08,-61.02q-0.21,1.63 -0.4,3.31a77.13,77.13 0 0 1 20.89,-10.89l0.05,-0.02l0.05,-0.01q11.68,-2.75 23.43,-5.25q2.05,-1.6 4.13,-3.19q-10.52,1.32 -21.09,2.84a64.28,64.28 0 0 0 -27.06,13.21zm52.28,-16.56q-1.77,1.35 -3.52,2.69l2.15,-0.45l1.29,-0.86q0.93,-0.8 1.87,-1.6l-1.79,0.22zm7.06,-0.84q-1.48,0.98 -2.95,1.96l2.34,-0.48q1.55,-0.88 3.11,-1.76l-2.5,0.28zm7.88,-0.89l-1.87,1.05l1.43,-0.28q1,-0.47 2,-0.94l-1.56,0.17zm15.03,-3.7l-0.97,0.1l0.6,-0.27l0.28,-0.13l0.35,-0.15l0.43,-0.2l0.08,-0.03l-0.77,0.68zm17.58,0.42l2.4,-0.22c-36.76,34.94 -69.03,72.79 -90.73,109.43l-0.02,0.04l-0.02,0.04q-4.52,9.43 -9.15,18.26q-0.24,-2.59 -0.47,-5.15q-1.36,-14.87 -2.28,-28.62q0.49,-0.86 0.97,-1.73c20.6,-29.54 48.6,-59.78 80.23,-88.3l2.84,-0.78q8.11,-1.52 16.24,-2.97l-0.01,0zm62.57,-7.5q-6.63,0.57 -13.3,1.13l-1.11,-0.37q0.9,-0.93 1.81,-1.85l6.31,-1.06l0.03,0l9.81,-1.64q-1.77,1.89 -3.54,3.79l-0.01,0zm17.33,-1.53q-7.08,0.65 -14.2,1.26q1.92,-2.06 3.85,-4.1q7.64,-1.28 15.25,-2.58q-2.45,2.7 -4.89,5.43l-0.01,-0.01zm16.75,-1.57q-6.82,0.67 -13.67,1.3q2.59,-2.88 5.2,-5.72q6.82,-1.17 13.61,-2.36l0.95,-0.17q-3.05,3.45 -6.08,6.95l-0.01,0zm16.33,-1.68q-1.77,0.19 -3.53,0.37q-4.87,0.52 -9.75,1q3.17,-3.64 6.37,-7.23q7.03,-1.24 14.03,-2.52q-3.57,4.15 -7.12,8.38zm16,-1.84q-6.48,0.79 -12.98,1.5q3.68,-4.37 7.41,-8.65q6.83,-1.26 13.62,-2.57q-4.03,4.81 -8.04,9.72l-0.01,0zm15.63,-2.02q-6.29,0.87 -12.61,1.65q4.14,-5.05 8.32,-9.98q6.6,-1.28 13.15,-2.62q-4.44,5.41 -8.85,10.96l-0.01,-0.01zm14.68,-2.13q-5.81,0.9 -11.66,1.71q4.54,-5.68 9.12,-11.21q5.98,-1.23 11.93,-2.52q-4.71,5.92 -9.38,12.02l-0.01,0zm14.34,-2.35q-5.65,0.98 -11.33,1.88q4.79,-6.23 9.64,-12.27q5.73,-1.26 11.43,-2.58q-4.88,6.39 -9.73,12.97l-0.01,0zm-316.62,119.97q0.94,-1.42 1.89,-2.83q-0.08,0.32 -0.16,0.66q-0.99,1.44 -1.96,2.89q0.12,-0.36 0.23,-0.72zm-2.42,7.8q1.37,-2.07 2.75,-4.14q-2.2,9.61 -3.94,19.99q-2.36,3.65 -4.69,7.27q2.65,-12.06 5.88,-23.12zm-7.11,28.9q2.52,-3.91 5.08,-7.87c-1.69,10.75 -3.09,22.04 -4.27,33.8q-0.61,6.04 -1.15,12.24q-3.8,5.52 -7.58,10.89q1.06,-8.27 2.23,-16.26c1.67,-11.4 3.54,-22.36 5.69,-32.8zm-8.48,53.48q3.89,-5.47 7.78,-11.1c-1.01,12.11 -1.85,24.66 -2.63,37.58q-4.64,5.66 -9.31,11.04c1.3,-12.88 2.66,-25.4 4.16,-37.52zm-4.53,41.14q4.75,-5.42 9.47,-11.1q-0.89,15.12 -1.71,30.87q-5.27,5 -10.6,9.64q1.42,-14.97 2.84,-29.42l0,0.01zm-3.13,32.44q5.39,-4.64 10.73,-9.63l-0.1,1.8l0,0q-0.61,11.62 -1.26,23.52q-1.53,1.05 -3.06,2.07q-4.26,2.84 -8.55,5.47l0.09,-0.9q1.1,-11.29 2.15,-22.34l0,0.01zm7.48,19.51q0.87,-0.58 1.74,-1.17q-0.16,2.9 -0.32,5.82q-0.43,7.41 -0.88,14.9q-6.16,2.8 -12.37,5.19q0.97,-9.27 1.86,-18.4q5,-3.04 9.97,-6.34zm-12.07,27.09q6.24,-2.38 12.46,-5.16q-0.52,8.4 -1.11,16.9q-6.44,1.62 -12.92,2.83q0.81,-7.32 1.57,-14.58l0,0.01zm-1.81,16.75q6.51,-1.21 13.01,-2.81q-0.48,6.84 -1.01,13.73q-6.66,0.49 -13.33,0.57q0.68,-5.77 1.33,-11.5l0,0.01zm-1.58,13.6q6.7,-0.1 13.41,-0.56q-0.43,5.51 -0.9,11.06q-6.81,-0.58 -13.6,-1.53q0.56,-4.5 1.09,-8.98l0,0.01zm-1.36,11.06q6.82,0.94 13.69,1.53q-0.38,4.4 -0.79,8.83q-6.92,-1.56 -13.79,-3.46q0.46,-3.47 0.89,-6.91l0,0.01zm-1.17,9q6.9,1.9 13.87,3.47q-0.3,3.14 -0.61,6.28q-1.31,-0.46 -2.63,-0.94q-5.5,-3.27 -10.91,-6.7q0.14,-1.06 0.28,-2.12l0,0.01zm78.4,-329.4q0.12,-1.5 0.26,-2.98a74.85,74.85 0 0 1 21.81,-11.74q9.53,-2.25 19.1,-4.32q-1.77,1.4 -3.53,2.8q-11.21,3.49 -22.22,7.18l-0.05,0.01l-0.05,0.03a91.77,91.77 0 0 0 -15.32,9.01l0,0.01zm43.2,-17.96q1.33,-1.05 2.68,-2.1l1.38,-0.29q-1.52,1.03 -3.02,2.07l-1.04,0.32zm9.11,-2.87l0.88,-0.76l0.67,-0.14l-0.48,0.28l-0.34,0.2l-0.73,0.42zm94.4,-17.35l-0.89,-0.29l1.4,-0.24l-0.51,0.53zm-5.21,-1.7q4.11,-0.69 8.22,-1.38q2.22,-2.26 4.47,-4.51q-8.74,2.16 -17.47,4.35q2.41,0.76 4.79,1.53l-0.01,0.01zm15.29,-2.57l0.01,0l0.01,0q6.24,-1.04 12.48,-2.09q3.08,-3.25 6.2,-6.45q-8.67,2.11 -17.34,4.24q-2.45,2.43 -4.89,4.89l3.5,-0.58l0.03,-0.01zm15.96,-2.67q7.58,-1.28 15.14,-2.57q3.8,-4.13 7.63,-8.18l-0.82,0.2l-2.57,0.63l-0.01,0l-0.01,0l0,0l-0.01,0l-0.01,0l-12.75,3.1q-3.31,3.38 -6.59,6.81l0,0.01zm29.46,-5.05l3.55,-0.62q4.4,-4.92 8.84,-9.72q-7.63,1.86 -15.3,3.73q-4.02,4.21 -8.01,8.51q5.47,-0.95 10.92,-1.9zm6.91,-1.22q7,-1.24 13.96,-2.52q4.91,-5.64 9.87,-11.12q-7.3,1.81 -14.63,3.6q-4.62,4.95 -9.2,10.04zm17.29,-3.14q6.8,-1.27 13.57,-2.58q5.34,-6.28 10.74,-12.36q-7.03,1.77 -14.1,3.53q-5.13,5.61 -10.21,11.41zm16.88,-3.22q6.57,-1.29 13.09,-2.64q3.33,-4 6.67,-7.92q2.39,-2.8 4.78,-5.55q-6.71,1.75 -13.48,3.47q-0.44,0.49 -0.88,0.98q-5.11,5.73 -10.18,11.65l0,0.01zm16.4,-3.33q5.94,-1.24 11.85,-2.53q2.33,-2.91 4.67,-5.77q3.55,-4.33 7.1,-8.56q-5.91,1.58 -11.88,3.14q-3.4,3.88 -6.78,7.85q-2.48,2.91 -4.95,5.87l-0.01,0zm15.13,-3.26q5.7,-1.27 11.35,-2.6q2.2,-2.85 4.41,-5.66q3.73,-4.74 7.48,-9.36q-5.56,1.55 -11.18,3.06q-4.53,5.34 -9.04,10.85q-1.51,1.84 -3.01,3.71l-0.01,0zm-353.83,398.26l0.59,0.23l-0.57,-0.35l-0.02,0.12zm-1.93,-1.36l-0.08,0.55q-2.98,-1.22 -5.94,-2.48q-3.94,-2.15 -7.83,-4.37q0.15,-0.86 0.3,-1.72q1.28,0.42 2.56,0.83q5.43,3.65 10.99,7.19zm0.41,-3.1q-0.05,0.4 -0.1,0.81q-2.1,-1.35 -4.19,-2.71q2.18,0.65 4.38,1.27q-0.04,0.31 -0.09,0.62l0,0.01zm1.22,-9.36q-0.42,3.31 -0.85,6.62q-5.46,-1.54 -10.85,-3.26q-1.47,-0.99 -2.93,-1.99q0.32,-1.87 0.65,-3.74q6.94,1.32 13.98,2.36l0,0.01zm1.32,-10.75q-0.52,4.32 -1.06,8.66q-6.98,-1.02 -13.89,-2.36q0.57,-3.29 1.11,-6.57c4.59,0.2 9.21,0.29 13.84,0.27zm1.54,-13.22q-0.63,5.54 -1.29,11.12c-4.6,0.03 -9.18,-0.06 -13.74,-0.25q0.73,-4.43 1.44,-8.84q6.77,-0.85 13.59,-2.04l0,0.01zm1.77,-16.32q-0.74,7.04 -1.53,14.15q-6.75,1.2 -13.48,2.04q0.93,-5.86 1.83,-11.69q6.58,-2.07 13.18,-4.5zm2.05,-20.23q-0.87,8.89 -1.81,17.9q-6.53,2.45 -13.07,4.52q1.19,-7.72 2.31,-15.35q6.29,-3.36 12.57,-7.07zm2.44,-25.23q-0.95,9.99 -1.94,20.16q-0.08,0.81 -0.16,1.62l-0.08,0.85q-6.21,3.73 -12.45,7.08q0.84,-5.67 1.65,-11.28q0.65,-4.47 1.29,-8.9q5.86,-4.6 11.69,-9.53zm3.05,-31.7q-1.38,13.97 -2.74,28.42l0,0l0,0.01l-0.02,0.27q-5.76,4.93 -11.54,9.51l0.47,-3.29l0,-0.02l0,0q1.71,-11.87 3.4,-23.46q5.22,-5.59 10.43,-11.45l0,0.01zm4.35,-40.25c-1.43,11.86 -2.73,24.11 -4,36.67q-5.11,5.82 -10.24,11.36c1.82,-12.36 3.68,-24.43 5.64,-36.17q4.3,-5.85 8.6,-11.87l0,0.01zm7.93,-52.24q-2.59,13.34 -4.66,27.66q-1.46,9.9 -2.73,20.21q-4.19,5.89 -8.35,11.6q2.17,-12.7 4.57,-24.83q2.71,-13.57 5.82,-26.31q2.66,-4.15 5.35,-8.34l0,0.01zm6.37,-27.84q-2.89,10.68 -5.24,22.2q-2.44,3.79 -4.85,7.53c2.38,-9.1 4.97,-17.85 7.82,-26.2q1.13,-1.77 2.27,-3.53zm2,-7.06l-0.05,0.18l-0.03,0.1q-0.53,0.8 -1.05,1.6l0.07,-0.2q0.53,-0.85 1.07,-1.69l-0.01,0.01zm46.27,-72.49q-0.08,1.17 -0.15,2.36a113.35,113.35 0 0 1 9.58,-6.43l0.05,-0.03l0.06,-0.03q10.41,-4.63 21.17,-9.11q1.32,-1.08 2.65,-2.16q-8.56,2.71 -17,5.54a89.58,89.58 0 0 0 -16.35,9.85l-0.01,0.01zm68.72,-26.02q4.33,-1.24 8.68,-2.46c-30.18,27.54 -56.94,56.62 -76.91,85.09c-0.61,-9.99 -1,-19.48 -1.13,-28.44a552.84,552.84 0 0 1 43.15,-42.96q5.21,-2.61 10.5,-5.19q7.8,-3.06 15.71,-6.05l0,0.01zm65.74,-19.71l-0.69,0.17l-0.63,0.16q-2.58,-0.81 -5.18,-1.62q6.02,-2.02 12.07,-4q-2.8,2.62 -5.57,5.28l0,0.01zm22.84,-5.69q-9.36,2.3 -18.71,4.65q3.07,-2.92 6.17,-5.81q10.23,-3.33 20.48,-6.59q-3.98,3.84 -7.94,7.75zm21.18,-5.18q-8.59,2.09 -17.19,4.2q4.23,-4.14 8.5,-8.21q9.24,-2.91 18.47,-5.77q-4.92,4.83 -9.77,9.77l-0.01,0.01zm19.94,-4.85l-4,0.97l-2.61,0.64l-0.04,0.01l-9.4,2.28q5.11,-5.16 10.28,-10.18q8.51,-2.62 16.98,-5.19q-5.62,5.64 -11.2,11.46l-0.01,0.01zm19,-4.64q-7.58,1.86 -15.2,3.71q5.81,-6.02 11.69,-11.83q7.95,-2.41 15.85,-4.78q-6.18,6.32 -12.33,12.9l-0.01,0zm18.29,-4.5q-7.25,1.8 -14.54,3.59q5.37,-5.7 10.78,-11.2q1,-1.02 2,-2.04q7.53,-2.25 14.99,-4.46q-3.84,3.98 -7.66,8.08q-2.79,2.98 -5.57,6.02l0,0.01zm17.72,-4.45q-6.99,1.77 -14.03,3.53q1.71,-1.85 3.42,-3.68q5.1,-5.46 10.23,-10.73q7.2,-2.14 14.31,-4.24q-6.97,7.36 -13.92,15.11l-0.01,0.01zm17.07,-4.4q-6.67,1.75 -13.4,3.46q7.13,-7.89 14.3,-15.38l0.16,-0.05l0,0l0.02,0l0.04,-0.01l0.04,-0.02l13.23,-3.92q-7.2,7.74 -14.38,15.92l-0.01,0zm15.42,-4.08q-5.86,1.57 -11.78,3.13q7.36,-8.31 14.74,-16.15q5.74,-1.7 11.4,-3.39q-7.18,7.96 -14.36,16.4l0,0.01zm14.65,-4.02q-5.5,1.53 -11.06,3.04q7.32,-8.54 14.66,-16.59q5.27,-1.57 10.46,-3.13q-7.03,8.1 -14.05,16.67l-0.01,0.01zm-357.32,180.5q0.8,-1.31 1.62,-2.61q-3.7,11.81 -6.82,24.52q-2.6,4.06 -5.17,8.08c3.19,-10.4 6.62,-20.42 10.37,-29.99zm-12.55,37.32q2.91,-4.57 5.86,-9.18q-2.34,10.02 -4.42,20.51q-2.82,14.12 -5.29,29.04q-4.76,6.49 -9.5,12.78c2.63,-11.89 5.37,-23.48 8.28,-34.72q2.44,-9.39 5.06,-18.43l0.01,0zm-14.43,58.07q4.9,-6.47 9.82,-13.13c-1.88,11.43 -3.66,23.16 -5.42,35.14q-5.76,6.15 -11.53,12c2.35,-11.56 4.7,-22.91 7.12,-34.01l0.01,0zm-7.89,37.78q5.87,-5.93 11.76,-12.14q-1.48,10.13 -2.97,20.49l0,0l0,0l0,0.02q-0.39,2.73 -0.78,5.46q-6.37,4.98 -12.74,9.6l0.3,-1.47q0.38,-1.88 0.76,-3.75l0.66,-3.3l0.03,-0.15l0,-0.02l0,-0.01l0.01,-0.06q1.49,-7.39 2.97,-14.67zm-5.35,26.49q6.45,-4.66 12.92,-9.65q-0.49,3.36 -0.98,6.73q-0.92,6.38 -1.87,12.82q-6.74,3.56 -13.47,6.77q1.73,-8.39 3.4,-16.68l0,0.01zm-3.93,19.25q6.79,-3.22 13.62,-6.78q-1.1,7.38 -2.24,14.83q-6.96,2.16 -13.89,3.98q1.28,-6.04 2.51,-12.03zm-2.99,14.33q6.97,-1.83 14.02,-3.97q-0.87,5.61 -1.77,11.26c-4.73,0.57 -9.44,1.01 -14.1,1.38q0.93,-4.35 1.85,-8.67zm-2.32,10.81c4.7,-0.36 9.45,-0.8 14.22,-1.36q-0.68,4.23 -1.38,8.48c-4.77,-0.24 -9.5,-0.57 -14.18,-0.99q0.67,-3.07 1.34,-6.13zm-1.8,8.2c4.71,0.42 9.48,0.76 14.29,1q-0.52,3.13 -1.06,6.27q-5.65,-1.13 -11.22,-2.41q-1.34,-0.97 -2.66,-1.94q0.32,-1.46 0.65,-2.91l0,-0.01zm6.39,7.99q3.23,0.7 6.49,1.34q-0.25,1.43 -0.5,2.85q-3.02,-2.08 -6,-4.19l0.01,0zm-0.42,5.94q2.87,1 5.76,1.97l-0.14,0.77l-0.09,0.5q-2.78,-1.6 -5.53,-3.23l0,-0.01zm101.68,-312.59q0.03,-0.73 0.07,-1.44a111.28,111.28 0 0 1 10.75,-7.35q7.25,-3.23 14.67,-6.37q-0.63,0.52 -1.25,1.05q-10.44,5.52 -20.41,11.16l-0.05,0.03l-0.06,0.04q-1.89,1.41 -3.72,2.88zm121,-53.32l0.48,-0.17l-0.22,-0.06l-0.26,0.23zm3.9,-1.32q9.54,-3.21 19.14,-6.34q5.17,-4.8 10.41,-9.5q-12.92,5.07 -25.75,10.34q-2.82,2.46 -5.61,4.95l1.81,0.55zm23.93,-7.9q10.11,-3.28 20.24,-6.47q6.42,-6.1 12.93,-12q-10.96,4.09 -21.92,8.34q-5.67,5 -11.26,10.13l0.01,0zm24.83,-7.92q9.14,-2.87 18.27,-5.68q7.3,-7.09 14.69,-13.87q-9.61,3.44 -19.27,7.01q-6.9,6.15 -13.7,12.54l0.01,0zm22.71,-7.05q8.42,-2.58 16.81,-5.12q3.4,-3.36 6.81,-6.65q4.55,-4.39 9.12,-8.65q-8.64,2.99 -17.37,6.09l-1.16,1.06q-7.15,6.48 -14.22,13.27l0.01,0zm21.13,-6.43q7.89,-2.37 15.71,-4.71q8.37,-8.44 16.78,-16.38q-7.93,2.65 -15.95,5.4q-6.3,5.8 -12.59,11.86q-1.99,1.9 -3.96,3.83l0.01,0zm19.94,-5.97q7.47,-2.23 14.86,-4.43q8.64,-8.86 17.3,-17.15q-7.36,2.39 -14.85,4.87q-8.67,8.07 -17.32,16.7l0.01,0.01zm19.01,-5.66q7.14,-2.11 14.2,-4.2q8.78,-9.16 17.55,-17.66q-6.92,2.18 -13.98,4.45q-8.88,8.38 -17.78,17.41l0.01,0zm18.28,-5.41q6.74,-2 13.39,-3.97q8.76,-9.3 17.49,-17.88q-6.39,1.95 -12.91,3.99q-8.96,8.56 -17.98,17.86l0.01,0zm17.41,-5.16q5.67,-1.68 11.25,-3.35q8.42,-9.22 16.8,-17.75q-5.05,1.51 -10.21,3.07q-8.89,8.62 -17.85,18.02l0.01,0.01zm15.18,-4.52q5.18,-1.55 10.29,-3.09q7.91,-9.01 15.8,-17.4q-4.47,1.3 -9.03,2.66q-8.5,8.53 -17.07,17.82l0.01,0.01zm-417.57,420.9q1.6,0.8 3.21,1.59q-1.58,-0.96 -3.14,-1.92l-0.07,0.33zm-1.83,-1.43l-0.11,0.46q-2,-1 -3.97,-2.02q2.02,0.79 4.07,1.56l0.01,0zm2.46,-1.32q5.93,2.21 12.01,4.28q-4.5,-3.12 -8.9,-6.3q-1.27,-0.29 -2.52,-0.59q-0.31,1.3 -0.6,2.61l0.01,0zm-1.46,-3.1q-0.24,1.09 -0.49,2.18q-3.04,-1.89 -6.02,-3.8q3.22,0.83 6.5,1.63l0.01,-0.01zm1.33,-5.92l-0.39,1.75q-1.39,-1.02 -2.77,-2.05q1.56,0.15 3.15,0.3l0.01,0zm1.72,-7.85q-0.62,2.89 -1.26,5.78q-3.47,-0.32 -6.89,-0.69q-2.83,-2.15 -5.6,-4.31c4.51,-0.2 9.11,-0.45 13.74,-0.78l0.01,0zm2.23,-10.38q-0.87,4.11 -1.76,8.24c-5,0.36 -9.95,0.63 -14.83,0.84q0.77,-2.73 1.54,-5.46q4.09,-0.93 8.24,-1.92q3.38,-0.82 6.8,-1.7l0.01,0zm2.89,-13.8q-1.18,5.73 -2.4,11.5q-3.91,1.02 -7.8,1.95q-3.56,0.86 -7.1,1.66q1.18,-4.19 2.33,-8.36c4.94,-2.16 9.94,-4.39 14.96,-6.75l0.01,0zm3.8,-18.58q-1.61,7.96 -3.26,16c-4.96,2.35 -9.89,4.57 -14.79,6.72q1.74,-6.32 3.44,-12.58q7.26,-4.91 14.6,-10.13l0.01,-0.01zm5.17,-25.58q-1.17,5.75 -2.34,11.56l-0.01,0.07q-0.72,3.59 -1.45,7.21l-0.42,2.06l-0.13,0.65l-0.2,1q-7.21,5.19 -14.38,10.05q1.95,-7.19 3.87,-14.3l0,0l0.25,-0.92q0.53,-1.98 1.07,-3.95q6.83,-6.57 13.72,-13.43l0.02,0zm7.57,-36.51q-3.46,16.07 -6.82,32.77q-6.72,6.76 -13.42,13.21q4.2,-15.52 8.4,-30.61q5.88,-7.58 11.83,-15.37l0.01,0zm13.49,-55.84q-1.61,5.78 -3.15,11.7c-3.29,12.67 -6.34,25.78 -9.29,39.27q-5.71,7.54 -11.38,14.86c4.55,-16.1 9.21,-31.76 14.19,-46.88q1.32,-4.04 2.68,-8.02q3.44,-5.43 6.94,-10.93l0.01,0zm10.7,-34.02q-4.66,13.02 -8.69,26.94q-2.97,4.67 -5.91,9.29c4.32,-12.1 8.91,-23.8 13.89,-35.05l0.21,-0.36l0.19,-0.31l0.31,-0.51zm62.08,-93.12c0,0.12 -0.01,0.24 -0.02,0.36l0,0.22q7.06,-4.9 14.46,-9.77q-4.76,2.61 -9.4,5.24q-2.59,1.93 -5.06,3.95l0.02,0zm120.37,-58.84l0.47,0.14q0.98,-0.88 1.97,-1.76q-1.64,0.68 -3.27,1.37l0.83,0.25zm7.31,-5.91q-5.67,2.34 -11.31,4.71q-2.81,-0.83 -5.64,-1.66q15.37,-7.72 31.05,-15.07q-7.12,5.92 -14.11,12.03l0.01,-0.01zm31.4,-12.54q-12.7,4.93 -25.32,10.06q7.73,-6.64 15.6,-13.06q13.85,-6.39 27.77,-12.43q-9.1,7.53 -18.07,15.43l0.02,0zm27.26,-10.34q-10.76,3.99 -21.55,8.13q9.58,-8.32 19.31,-16.22q11.31,-4.84 22.56,-9.4q-4.12,3.42 -8.23,6.93q-6.07,5.19 -12.1,10.57l0.01,-0.01zm24.4,-8.85q-9.45,3.37 -18.97,6.86q4.01,-3.53 8.03,-6.97q6.67,-5.7 13.36,-11.15q9.63,-3.85 19.15,-7.49q-10.81,9 -21.58,18.75l0.01,0zm22.3,-7.79q-8.51,2.92 -17.11,5.95q11.22,-10.01 22.47,-19.22q8.45,-3.18 16.75,-6.17q-11.04,9.27 -22.12,19.44l0.01,0zm20.72,-6.99q-7.81,2.59 -15.72,5.28q11.45,-10.37 22.87,-19.78q7.57,-2.68 14.99,-5.19q-11.03,9.34 -22.16,19.69l0.02,0zm19.47,-6.37q-7.26,2.34 -14.65,4.77q11.44,-10.5 22.77,-19.91q6.9,-2.3 13.64,-4.43q-10.81,9.23 -21.77,19.57l0.01,0zm18.48,-5.87q-6.84,2.14 -13.8,4.36q11.2,-10.41 22.24,-19.68q6.37,-1.98 12.57,-3.81q-10.41,9.01 -21.03,19.14l0.02,-0.01zm17.27,-5.33q-6.29,1.92 -12.72,3.91q10.78,-10.15 21.36,-19.14q5.7,-1.64 11.22,-3.14q-9.83,8.64 -19.87,18.38l0.01,-0.01zm14.39,-4.32q-4.93,1.47 -9.97,2.98q10.14,-9.69 20.06,-18.27q4.02,-1.06 7.93,-2.04q-8.93,8.2 -18.03,17.34l0.01,-0.01zm13,-3.81q-4.34,1.26 -8.77,2.56c18.78,-18.61 37.1,-34.31 54.02,-46.29q5.9,-4.17 11.55,-7.73c-17.82,13.31 -37.12,30.78 -56.82,51.46l0.02,0zm-425.8,286.47c5.71,-13.76 11.69,-27.19 18.08,-40.25q-5.42,13.59 -10.28,27.9q-3.95,6.21 -7.82,12.35l0.02,0zm-4.59,11.25q4.75,-7.58 9.58,-15.23c-5.49,16.69 -10.59,34.02 -15.58,51.86q-7.49,9.62 -14.91,18.96c6.81,-18.99 13.67,-37.55 20.89,-55.59l0.02,0zm-23.13,61.77q7.78,-9.79 15.64,-19.83q-3.98,14.35 -7.94,29.1c-5.54,5.31 -11.06,10.5 -16.54,15.62l0.79,-2.24l0.04,-0.1q1.78,-5.03 3.55,-10.02q2.22,-6.29 4.45,-12.53l0.01,0zm-10.37,29.2c5.62,-5.25 11.3,-10.56 17,-16l-0.15,0.58l-0.25,0.9l0,0.01l-0.01,0.04l-0.01,0.04q-2.23,8.24 -4.49,16.6c-5.66,3.82 -11.28,7.53 -16.84,11.18q2.37,-6.7 4.73,-13.34l0.02,-0.01zm-5.93,16.65c5.66,-3.71 11.39,-7.48 17.17,-11.37q-1.61,5.91 -3.25,11.85c-5.6,2.44 -11.16,4.78 -16.63,7.08q1.35,-3.78 2.69,-7.55l0.02,-0.01zm-1.7,9.42c4.9,-2.06 9.86,-4.16 14.9,-6.33q-1.08,3.9 -2.18,7.82q-4.33,0.97 -8.6,1.89q-2.1,-1.69 -4.14,-3.38l0.02,0zm6.22,5.07q2.91,-0.63 5.86,-1.28q-0.68,2.42 -1.37,4.85q-2.29,-1.77 -4.5,-3.56l0.01,-0.01zm-4.97,6.19q4.34,-0.13 8.78,-0.3q-0.42,1.5 -0.85,3q-2.48,-0.32 -4.92,-0.64q-1.52,-1.03 -3.01,-2.06zm10.61,0.97l-0.57,1.99q1.85,0.23 3.71,0.44q-1.58,-1.21 -3.14,-2.43zm-3.71,3.72l0.44,0.06l-0.06,0.2l-0.38,-0.26zm2.28,1.28l-0.06,0.2q0.82,0.55 1.65,1.1q6.07,1.63 12.32,3.16q-3.07,-2.26 -6.08,-4.54q-3.81,-0.41 -7.56,-0.88l-0.07,0.24l-0.15,0.55l-0.05,0.17zm-4.88,1.69q1.01,0.29 2.04,0.57l-0.08,0.25q-0.98,-0.41 -1.96,-0.82zm4.06,1.13l-0.14,0.5q2.39,0.98 4.81,1.95q-1.57,-1.02 -3.12,-2.04l-1.55,-0.41zm123.28,-292.81l-0.22,0.18l0.23,-0.2l-0.01,0.02zm2.15,-1.76l0,-0.08l0.6,-0.42l-0.6,0.5zm35.24,-23.12q-5.55,3.41 -10.95,6.85q-4.86,3.62 -9.58,7.25q-7.65,6.77 -14.8,13.56q-0.04,3.87 -0.01,7.89c10.72,-11.89 22.6,-23.8 35.34,-35.55zm77.64,-45.23c11.7,-5.84 23.55,-11.52 35.45,-17.02q13.77,-11.22 27.82,-21.66q-5.93,2.88 -11.85,5.86q-14.17,7.11 -28.27,14.7q-11.72,8.83 -23.15,18.12zm43.19,-20.55q13.5,-6.13 27.03,-11.91q2.3,-1.87 4.6,-3.71q13.07,-10.44 26.19,-19.97q-13.6,5.96 -27.41,12.5q-4.18,3.01 -8.35,6.1q-11.09,8.22 -22.06,16.98l0,0.01zm34.14,-14.93q11.02,-4.64 21.97,-9.02c10.5,-8.55 21.02,-16.6 31.43,-24.08q-10.18,4.05 -20.6,8.49c-10.9,7.68 -21.88,15.92 -32.8,24.61zm28.58,-11.65q9.38,-3.7 18.64,-7.18c10.35,-8.46 20.65,-16.36 30.8,-23.61q-8.12,2.93 -16.45,6.14c-10.89,7.58 -21.93,15.84 -32.99,24.65zm24.84,-9.5q8.24,-3.05 16.32,-5.91c9.9,-8.15 19.72,-15.71 29.34,-22.59q-6.75,2.18 -13.7,4.6c-10.49,7.27 -21.19,15.27 -31.96,23.9zm22.17,-7.96q7.38,-2.58 14.61,-4.98c9.23,-7.67 18.36,-14.76 27.3,-21.19q-5.79,1.66 -11.77,3.52c-9.86,6.83 -19.95,14.42 -30.14,22.65zm20.13,-6.8q6.73,-2.2 13.29,-4.24c8.42,-7.06 16.72,-13.58 24.83,-19.5q-5.08,1.25 -10.36,2.69c-9.05,6.34 -18.34,13.38 -27.76,21.05zm18.52,-5.85q6.22,-1.9 12.25,-3.64a399.7,399.7 0 0 1 37.79,-28.64a224.59,224.59 0 0 1 27.74,-15.85q-0.53,-0.03 -1.06,-0.05c-11.35,4.24 -23.9,10.75 -37.24,19.24q-4.92,3.13 -9.97,6.6q1.38,-0.3 2.73,-0.58l0.43,2.06q-3.78,0.79 -7.69,1.69c-8.14,5.78 -16.49,12.19 -24.98,19.17zm17.2,-5.05q5.54,-1.56 10.9,-2.98a387.36,387.36 0 0 1 33.94,-26.38a223.05,223.05 0 0 1 25.87,-15.45q-0.35,-0.03 -0.7,-0.05c-10.97,4.3 -23.1,10.86 -36.01,19.38a388.3,388.3 0 0 0 -34,25.48zm22.4,-5.92l0.1,0.37a393.07,393.07 0 0 1 36.35,-29.49q3.78,-2.67 7.46,-5.1a235.97,235.97 0 0 0 -20.28,12.52a376.44,376.44 0 0 0 -30.47,23.42q3.46,-0.89 6.84,-1.72zm-485.1,442.98q2.8,0.4 5.64,0.79q-0.96,-0.67 -1.92,-1.34l-3.55,0.1l-0.17,0.45zm-2.1,-0.39l-0.03,0.08l-0.25,-0.04l-0.06,-0.03l0.34,-0.01zm1.24,-3.38l-0.46,1.25l-1.3,0.03l-0.35,0.01l-0.04,0l-0.07,0l-0.44,0.01l-0.63,0.02l-0.45,0.01l-1.27,0.03l-0.68,-0.4q2.53,-0.54 5.1,-1.09l0.32,-0.07l0.27,0.2zm2.52,-0.79l0,0l0.2,-0.04l0.03,-0.01q3.8,-0.81 7.68,-1.64q2.03,1.64 4.1,3.29q-4.72,0.17 -9.33,0.29q-1.34,-0.95 -2.68,-1.89zm0.84,-2.33q0.72,-1.99 1.44,-3.97q1.75,1.45 3.54,2.91q-2.5,0.54 -4.97,1.06l-0.01,0zm-1.12,-3.07q-0.65,1.79 -1.3,3.59l-0.75,0.15q-1.27,-0.9 -2.52,-1.81q2.28,-0.96 4.57,-1.93zm3.39,-9.43q-0.89,2.49 -1.79,4.99q-1.28,-1.07 -2.54,-2.14q2.16,-1.42 4.33,-2.85zm5.51,-15.47q-2.15,6.06 -4.33,12.16q-3.61,2.38 -7.18,4.73q-1.72,-1.47 -3.41,-2.93q6.83,-6.43 13.79,-12.9l0,0l0,0l0.03,-0.02l0.01,-0.02l0,0l0,0l0,0l1.09,-1.02zm9.66,-27.21q-1.2,3.35 -2.39,6.73q-1.79,5.04 -3.59,10.12l-2.15,6.05l-3.91,3.65l0,0l0,0l-0.01,0.01q-7.12,6.64 -14.12,13.21q-0.85,-0.75 -1.7,-1.49l3.04,-6.63l0,0l0.43,-0.93c6.17,-7.83 12.4,-15.65 18.67,-23.53l0,0l0.11,-0.14l0.13,-0.16l0.16,-0.19l0.01,-0.01q2.66,-3.34 5.33,-6.69l-0.01,0zm21.06,-57.08c-6.46,16.59 -12.66,33.6 -18.87,50.94q-4.75,5.98 -9.46,11.9l0,0q-6.73,8.45 -13.4,16.85c7.73,-16.8 15.38,-33.35 23.15,-49.69q9.18,-14.94 18.58,-29.99l0,-0.01zm15.88,-38.46q-4.36,9.88 -8.5,19.99q-1.58,3.85 -3.14,7.72q-7.12,11.37 -14.09,22.6c8.28,-16.97 16.77,-33.72 25.73,-50.31zm186.34,-196.25q2.34,0.66 4.66,1.32q8.49,-7 17.18,-13.78q-11.01,6.11 -21.84,12.47l0,-0.01zm32.72,-20.81c-11.98,6.46 -23.87,13.15 -35.54,20.03q-2.41,-0.66 -4.84,-1.31q2.6,-1.95 5.22,-3.89c18.68,-12.33 37.95,-24.09 57.3,-34.98c10.3,-5.81 20.63,-11.37 30.89,-16.65q-10.92,6.94 -21.86,14.41c-10.46,7.15 -20.88,14.63 -31.16,22.39l-0.01,0zm50.52,-25.57q-11.01,5.22 -22.06,10.76q-8.02,4.03 -16.02,8.2q9.91,-7.21 19.92,-14.04c13.97,-9.56 28.02,-18.5 41.9,-26.71c10.8,-5.17 21.46,-10 31.9,-14.41c-18.21,10.54 -36.96,22.75 -55.64,36.21l0,-0.01zm36.58,-16.47q-12.85,5.48 -25.92,11.5a623.04,623.04 0 0 1 60.97,-37.75q8.34,-3.26 16.4,-6.13a551.98,551.98 0 0 0 -51.45,32.39l0,-0.01zm28.8,-11.71q-9.6,3.71 -19.42,7.77a505.95,505.95 0 0 1 53.96,-32.36l0.68,-0.35q5.15,-1.67 10.15,-3.15l-0.11,0.06a465.66,465.66 0 0 0 -45.27,28.03l0.01,0zm23.83,-8.77q-7.62,2.66 -15.46,5.59c12.99,-8.73 25.7,-16.46 37.89,-23q4.61,-2.47 9.11,-4.71q3.68,-0.98 7.27,-1.83q-2.83,1.51 -5.69,3.12c-10.68,6 -21.78,12.99 -33.12,20.83zm20.38,-6.73q-6.33,1.97 -12.86,4.16c9.09,-6.08 18,-11.58 26.63,-16.43q6.45,-3.62 12.67,-6.74q2.99,-0.62 5.9,-1.15q-3.92,2.14 -7.92,4.49c-7.92,4.65 -16.09,9.9 -24.42,15.67zm17.79,-5.22q-5.43,1.49 -11.04,3.16q9.56,-6.4 18.74,-11.79c14.52,-8.53 28.2,-15.03 40.54,-19.14l0.07,0a237.1,237.1 0 0 0 -29.99,15.76q-8.96,5.48 -18.32,12.01zm15.76,-4q-4.76,1.11 -9.71,2.39q6.79,-4.59 13.37,-8.61c13.87,-8.48 26.92,-14.98 38.71,-19.15q0.32,0 0.64,0.01a230.17,230.17 0 0 0 -28.76,15.78q-6.99,4.45 -14.25,9.58zm-496.5,450.8q8.36,-11.06 16.86,-21.9q-1.9,4.14 -3.82,8.31l-0.43,-0.33l-1.28,1.67l0.69,0.52q-6.08,5.82 -12.02,11.73zm13.86,-10.34q-0.87,1.89 -1.75,3.79q1.78,-1.21 3.58,-2.42q-0.92,-0.69 -1.83,-1.37zm4.2,-9.11l-1.61,3.49q1.34,-1.27 2.68,-2.54q-0.54,-0.48 -1.08,-0.95l0.01,0zm-9.17,14.5l0.13,0.08l-0.3,0.65l-0.24,0.16l-0.44,-0.2l-0.49,-0.23l0.81,-0.78l0.53,0.32zm390.15,-427.14q12.75,-5.61 25.07,-10.44q8.38,-4.49 16.53,-8.44c7.84,-3.8 15.5,-7.22 22.91,-10.21c-10.72,3.71 -22.02,8.3 -33.72,13.68c-10.01,4.6 -20.31,9.76 -30.79,15.41zm42.14,-16.81q6.07,-2.15 11.98,-4.07c8.3,-4.21 16.39,-7.94 24.18,-11.11a325.98,325.98 0 0 0 -35.79,15l-0.37,0.18zm25.1,-8.09q3.59,-1.03 7.08,-1.96q8.9,-4.42 17.36,-7.91a260.5,260.5 0 0 0 -24.44,9.87zm17.28,-4.48q2.6,-0.59 5.13,-1.12q7.74,-3.87 15.09,-6.94c-6.45,2.18 -13.21,4.88 -20.22,8.06zm14.16,-2.82l0.19,1.14q9.67,-5.16 18.72,-8.99a195.76,195.76 0 0 0 -19.92,8.02l1.01,-0.17zm-173.77,69.98c17.45,-9.84 34.97,-18.98 52.16,-27.22a583.43,583.43 0 0 1 52.84,-27.88q10.35,-4.74 20.26,-8.67c-37.69,13.05 -81.52,35.03 -124.9,62.09q-11.43,7.13 -22.78,14.71q11.17,-6.69 22.42,-13.03zm-319.97,393.33l0.08,0.01l0.04,-0.03l-0.08,-0.02l-0.04,0.04zm1.74,-1.72l0.55,0.18l0.22,-0.15l-0.27,-0.13l-0.27,-0.12l-0.23,0.22zm9.54,-9.22q1.13,0.85 2.28,1.7q3.13,-2.1 6.31,-4.2q-1.58,-1.35 -3.12,-2.69q-2.75,2.59 -5.47,5.19zm-3.83,9.25l-0.31,-0.15l-0.43,-0.2l0.33,-0.23l0.3,-0.2l0.79,0.48l-0.25,0.11l-0.43,0.19zm3.03,-1.33l-1.24,-0.76q2.12,-1.44 4.26,-2.88q1,0.74 2,1.47q-2.52,1.08 -5.02,2.17zm7.27,-3.12q-1.2,-0.88 -2.4,-1.76q3.07,-2.05 6.18,-4.11q1.67,1.42 3.37,2.84q-3.6,1.52 -7.15,3.02l0,0.01zm-7.76,5.63l0.4,0.19l0.35,-0.08l-0.42,-0.26l-0.33,0.15zm2.7,-1.18l1.04,0.63q2.85,-0.62 5.75,-1.24q-1,-0.72 -2,-1.44q-2.41,1.02 -4.79,2.05zm537.52,-476.95l-0.58,0.26l0.01,-0.07l0.32,-0.1l0.12,-0.04l0.13,-0.05zm-360.3,482.4q-1.11,-13.02 -2.35,-25.84a130.46,130.46 0 0 0 12.05,-11.84c18.85,-21.06 34.07,-51.26 43.37,-94.04c16.45,-64.51 57.77,-133.73 106.65,-193.63q5.08,1.72 10.08,3.41c-49.75,64.16 -91.44,138.7 -106.01,208.02l0,0.01l0,0.02c-8.19,44.97 -23.22,75.66 -42.3,96.05a109.6,109.6 0 0 1 -21.49,17.84zm-155.43,4.4q-3.73,-1.05 -7.38,-2.12q2.64,0.37 5.32,0.73q1.03,0.69 2.06,1.39zm155.63,-2.04q0.97,11.53 1.83,23.21a96.94,96.94 0 0 0 32.8,-22.17c19.61,-20.06 34.58,-51.58 41.71,-99l0,-0.01l0,-0.01c12.6,-73.98 54.67,-153.87 105.35,-222.26q-4.96,-1.64 -10,-3.34c-49.81,64.12 -91.52,138.6 -106.05,207.72c-8.24,45.24 -23.4,76.34 -42.83,97.1a111.52,111.52 0 0 1 -22.81,18.75l0,0.01zm3.33,45.55q-0.62,-10.11 -1.34,-20.14a99.03,99.03 0 0 0 34.14,-22.9c20.02,-20.47 35.12,-52.45 42.29,-100.15c12.57,-73.76 54.65,-153.58 105.38,-221.92q4.98,1.63 9.89,3.2c-51.43,72.53 -93.71,157.6 -104.26,236.1l0,0.01c-6.08,49.89 -20.99,82.24 -41.13,101.96a89.55,89.55 0 0 1 -44.97,23.84zm0.13,2.12a91.69,91.69 0 0 0 46.31,-24.45c20.6,-20.17 35.63,-53.05 41.74,-103.2c10.52,-78.26 52.81,-163.25 104.29,-235.71q4.81,1.51 9.57,2.95c-51.13,75.94 -92.51,164.82 -100.86,246.65l0,0.01c-5.03,52.35 -19.88,85.53 -40.54,104.92c-16.66,15.63 -37.22,22.4 -59.73,22.9q-0.36,-7.05 -0.78,-14.07zm1.29,24.84q-0.19,-4.34 -0.41,-8.67c22.89,-0.53 43.96,-7.41 61.07,-23.47c21.18,-19.87 36.14,-53.63 41.2,-106.24c8.32,-81.58 49.7,-170.36 100.87,-246.24q4.85,1.44 9.65,2.78c-50.29,78.93 -90.19,170.79 -96.32,255.27c-3.97,54.81 -18.77,88.82 -39.96,107.88c-20.43,18.37 -47,23 -76.1,18.69z" fill="#8ee0b7" fill-rule="evenodd" id="shape.2b51cba3ac3363b666ac" opacity="0.15" stroke="#032cb2"/>
  <g data-name="Group 927" id="Group_927" opacity="0.14">
   <g data-name="Ellipse 259" fill="none" id="Ellipse_259" stroke="#21bf73" transform="translate(-17347 3248.3)">
    <circle cx="17670.92" cy="-2517.18" id="svg_3" r="130.82" stroke="#032cb2"/>
    <circle cx="17670.92" cy="-2517.18" fill="none" id="svg_4" r="130.32" stroke="#032cb2"/>
   </g>
   <g data-name="Ellipse 260" fill="none" id="Ellipse_260" stroke="#21bf73" transform="translate(-17326.6 3268.69)">
    <circle cx="17650.53" cy="-2537.57" id="svg_5" r="110.43" stroke="#032cb2"/>
    <circle cx="17650.53" cy="-2537.57" fill="none" id="svg_6" r="109.93" stroke="#032cb2"/>
   </g>
   <g data-name="Ellipse 261" fill="none" id="Ellipse_261" stroke="#21bf73" transform="translate(-17306.2 3289.07)">
    <circle cx="17630.14" cy="-2557.96" id="svg_7" r="90.04" stroke="#032cb2"/>
    <circle cx="17630.14" cy="-2557.96" fill="none" id="svg_8" r="89.54" stroke="#032cb2"/>
   </g>
   <g data-name="Ellipse 262" fill="none" id="Ellipse_262" stroke="#21bf73" transform="translate(-17289.2 3306.06)">
    <circle cx="17613.15" cy="-2574.95" id="svg_9" r="73.05" stroke="#032cb2"/>
    <circle cx="17613.15" cy="-2574.95" fill="none" id="svg_10" r="72.55" stroke="#032cb2"/>
   </g>
   <g data-name="Ellipse 263" fill="none" id="Ellipse_263" stroke="#21bf73" transform="translate(-17272.2 3323.05)">
    <circle cx="17596.16" cy="-2591.94" id="svg_11" r="56.06" stroke="#032cb2"/>
    <circle cx="17596.16" cy="-2591.94" fill="none" id="svg_12" r="55.56" stroke="#032cb2"/>
   </g>
   <g data-name="Ellipse 264" fill="none" id="Ellipse_264" stroke="#21bf73" transform="translate(-17255.2 3340.04)">
    <circle cx="17579.17" cy="-2608.93" id="svg_13" r="39.08" stroke="#032cb2"/>
    <circle cx="17579.17" cy="-2608.93" fill="none" id="svg_14" r="38.58" stroke="#032cb2"/>
   </g>
   <g data-name="Ellipse 265" fill="none" id="Ellipse_265" stroke="#21bf73" transform="translate(-17238.2 3357.03)">
    <circle cx="17562.19" cy="-2625.91" id="svg_15" r="22.09" stroke="#032cb2"/>
    <circle cx="17562.19" cy="-2625.91" fill="none" id="svg_16" r="21.59" stroke="#032cb2"/>
   </g>
  </g>
  <path d="m-279.01,336.83c14.23,-24.28 28.29,-47.81 42.6,-71.29c-6.19,13.24 -12.34,26.63 -18.57,40.18c-8.1,10.27 -16.11,20.59 -24.03,31.11zm-9.71,12.46c20.29,-34.85 40.08,-67.94 60.56,-101.27c15.2,-31.96 30.9,-63.13 48.62,-93.8q6.07,-12.26 12.7,-24.08q4.27,-8.86 8.94,-17.3q3.62,-7.71 7.62,-14.96q3.26,-7.11 6.91,-13.71q0.4,-0.89 0.8,-1.77q2.67,-5.8 5.67,-11.16a132.56,132.56 0 0 1 6.18,-12.4a112.77,112.77 0 0 1 5.98,-12.04a97.45,97.45 0 0 1 5.83,-11.77a85.1,85.1 0 0 1 5.72,-11.56a75.06,75.06 0 0 1 5.64,-11.41a66.79,66.79 0 0 1 5.57,-11.28c3.85,-10.17 9.3,-17.93 16.77,-22.82c9.17,-6 21.19,-7.57 36.57,-4.29c11.11,2.36 21.88,4.96 32.34,7.72q3.56,-2.4 7.15,-4.78c18.44,-13.62 37.53,-26.58 56.72,-38.56c63.39,-39.55 127.98,-68.4 173.19,-74.37q2.64,-0.46 5.19,-0.82q3.98,-0.79 7.77,-1.31q4.63,-0.99 9,-1.58q5.01,-1.12 9.7,-1.73a97.13,97.13 0 0 1 10.15,-1.84a88.47,88.47 0 0 1 10.47,-1.91a81.06,81.06 0 0 1 10.69,-1.96a74.6,74.6 0 0 1 10.85,-2q3.02,-0.8 5.91,-1.32q1.59,-0.79 3.15,-1.52c10,-6.19 19.36,-10.76 27.81,-13.49c12.69,-4.1 23.56,-4.13 31.55,1.03l-1.14,1.77c-7.22,-4.66 -17.33,-4.82 -29.77,-0.8a104.25,104.25 0 0 0 -14.5,6.06c12.16,-3.68 22.65,-3.76 30.63,0.66l-1.02,1.84c-7.54,-4.18 -17.86,-4.09 -30.37,-0.06q-2.72,0.87 -5.55,1.99c8.99,-1.72 16.9,-1.25 23.36,1.78l-0.9,1.9c-5.45,-2.56 -12.18,-3.18 -20,-1.98a32.69,32.69 0 0 1 9.32,2.07l-0.76,1.96a35.79,35.79 0 0 0 -16.49,-1.84a34.68,34.68 0 0 1 5.99,1.32l-0.64,2a36.16,36.16 0 0 0 -10.9,-1.57q-0.53,0.35 -1.07,0.7q0.68,0.14 1.35,0.31l-0.51,2.04q-1.63,-0.41 -3.35,-0.67q-3.64,2.48 -7.39,5.22c-17.62,12.89 -36.82,30.01 -56.47,50.41q5.6,-1.61 11.04,-3.14l0.57,2.02q-7.11,2 -14.5,4.15q-7.95,8.36 -15.97,17.41c12.9,-3.9 25.41,-7.74 37.42,-11.54l0.64,2c-13.03,4.12 -26.64,8.29 -40.7,12.52q-7.15,8.17 -14.3,16.82c21.41,-6.03 42.15,-12.39 61.91,-19.3l0.7,1.99c-20.7,7.23 -42.47,13.87 -64.94,20.15q-4.68,5.72 -9.33,11.63q-1.41,1.79 -2.81,3.59c28.9,-6.89 57.01,-15.04 83.95,-25.3l0.75,1.96c-27.83,10.6 -56.89,18.94 -86.75,25.98q-5.01,6.5 -9.96,13.2c35.37,-6.3 69.91,-15.26 103.54,-29.07l0.8,1.94c-34.49,14.18 -69.92,23.26 -106.15,29.6q-4.01,5.46 -7.98,11.05c40.96,-4.28 81,-12.97 120.91,-30.51l0.85,1.92c-40.76,17.92 -81.63,26.64 -123.37,30.87q-3.11,4.43 -6.2,8.92c45.82,-0.92 90.44,-8.22 136.31,-29.64l0.89,1.9c-46.71,21.82 -92.11,29.07 -138.65,29.87q-2.33,3.43 -4.64,6.89c50.14,3.63 98.45,-1.16 150,-26.59l0.93,1.88c-52.39,25.85 -101.46,30.53 -152.27,26.72q-1.64,2.48 -3.27,4.99c54.06,9.23 105.23,8.04 162.21,-21.52l0.96,1.87c-57.82,29.99 -109.74,31.02 -164.42,21.57q-1.05,1.61 -2.09,3.23q2.32,0.63 4.62,1.23c55.97,14.67 108,17.04 168.53,-15.82l1,1.84c-61.15,33.2 -113.77,30.77 -170.07,16.01q-2.62,-0.69 -5.26,-1.41c-50.33,78.86 -90.24,170.61 -96.34,254.83c-4,55.06 -18.89,89.72 -40.65,109.29c-20.95,18.84 -48.07,23.54 -77.41,19.27c1.33,31.04 1.72,62.46 0.68,93.82l-2.1,-0.07c1.04,-31.45 0.64,-62.96 -0.7,-94.07q-0.72,-0.12 -1.44,-0.24q-5.83,-0.98 -11.76,-2.41c0.64,27.86 0.48,56.04 -0.85,84.16l-2.1,-0.1c1.34,-28.27 1.49,-56.58 0.83,-84.58q-6.65,-1.68 -13.4,-3.86c0.06,25.15 -0.57,50.55 -2.19,75.92l-2.1,-0.13c1.63,-25.57 2.26,-51.15 2.19,-76.48q-6.75,-2.24 -13.55,-4.94c-0.46,22.85 -1.51,45.9 -3.4,68.93l-2.1,-0.17c1.9,-23.26 2.96,-46.54 3.41,-69.59q-6.82,-2.76 -13.64,-5.91c-0.93,20.9 -2.37,41.98 -4.53,63.06l-2.09,-0.22c2.19,-21.33 3.63,-42.66 4.56,-63.79q-6.85,-3.22 -13.67,-6.78c-1.38,19.28 -3.2,38.72 -5.65,58.18l-2.09,-0.26c2.48,-19.7 4.32,-39.38 5.7,-58.9q-6.92,-2.85 -13.8,-6.05c-1.8,17.43 -3.96,35 -6.65,52.6l-2.08,-0.32c2.72,-17.8 4.91,-35.59 6.71,-53.22q-6.96,-3.28 -13.82,-6.83c-2.2,15.83 -4.71,31.78 -7.65,47.78l-2.07,-0.38c2.99,-16.21 5.52,-32.39 7.74,-48.43q-3.25,-1.7 -6.47,-3.46q-3.74,-1.6 -7.45,-3.27c-2.57,14.23 -5.4,28.57 -8.58,42.96l-2.05,-0.46c3.21,-14.53 6.06,-29.02 8.66,-43.4q-7.12,-3.24 -14.03,-6.68q-4.36,18.86 -9.39,37.97l-2.03,-0.53q5.12,-19.3 9.49,-38.41q-7.13,-3.58 -13.97,-7.28q-4.88,16.74 -10.25,33.7l-2,-0.64q5.46,-17.14 10.37,-34.08q-3.14,-1.71 -6.2,-3.42q-4.01,-1.72 -7.89,-3.44q-5.3,14.45 -10.94,29.12l-1.96,-0.75q5.67,-14.72 10.97,-29.23l-1.26,-0.57q-2.67,-0.81 -5.27,-1.61l-0.46,-0.07l-0.1,-0.01l-4.45,-0.65q-2.08,0.06 -4.11,0.14q-4.73,10.2 -9.59,20.55l-1.9,-0.9q4.53,-9.65 8.95,-19.18q-1.32,0.32 -2.62,0.64q-2.17,1.02 -4.29,2.05q-2.06,1.51 -4.08,3.03q-0.98,1 -1.95,2.01l-0.26,-0.24q-0.8,1.08 -1.6,2.18l-0.54,-0.4l-1.36,2.34l-1.82,-1.05zm196.66,61.18q6.14,1.49 12.16,2.51q0.5,0.09 1,0.17q-0.18,-4.16 -0.39,-8.31q-6.38,0.04 -12.94,-0.55q0.09,3.09 0.17,6.18zm-2.27,-6.38q0.08,2.92 0.16,5.85q-6.63,-1.69 -13.36,-3.89q-0.01,-1.93 -0.02,-3.86q6.66,1.22 13.22,1.9zm2.04,-1.92q6.54,0.59 12.9,0.57q-0.35,-6.86 -0.76,-13.69a115.98,115.98 0 0 1 -12.52,1.65q0.21,5.73 0.38,11.47zm-2.48,-11.32q0.21,5.55 0.37,11.12q-6.52,-0.68 -13.17,-1.93q-0.03,-4.51 -0.1,-9.02q0.66,0.02 1.31,0.04q5.85,0.13 11.59,-0.21zm2.01,-2.25a113.64,113.64 0 0 0 12.48,-1.66q-0.6,-9.92 -1.31,-19.76a108.26,108.26 0 0 1 -11.94,3.73q0.43,8.81 0.77,17.69zm-2.85,-17.19q0.42,8.64 0.76,17.34q-5.66,0.34 -11.46,0.2q-0.69,-0.01 -1.39,-0.04q-0.12,-7.67 -0.31,-15.31a123.03,123.03 0 0 0 12.4,-2.19zm1.97,-2.64a105.72,105.72 0 0 0 11.9,-3.78q-0.84,-11.47 -1.79,-22.82a110.88,110.88 0 0 1 -11.27,5.8q0.63,10.35 1.16,20.8zm-3.22,-19.91q0.62,10.16 1.14,20.42a120.39,120.39 0 0 1 -12.34,2.21q-0.24,-9.23 -0.58,-18.39a118.74,118.74 0 0 0 11.79,-4.24l-0.01,0zm1.92,-3.13a108.63,108.63 0 0 0 11.2,-5.89q-1.08,-12.81 -2.3,-25.42a124.47,124.47 0 0 1 -10.5,7.79q0.86,11.68 1.6,23.52zm-3.6,-22.21q0.83,11.47 1.55,23.11a116.25,116.25 0 0 1 -11.73,4.3q-0.4,-10.63 -0.9,-21.13a125.77,125.77 0 0 0 11.08,-6.28zm1.83,-3.72a122.55,122.55 0 0 0 10.44,-7.92q-1.37,-14.14 -2.83,-27.99q-4.72,5.12 -9.67,9.59q1.08,13.03 2.06,26.32zm-4.02,-24.56q1.05,12.82 2.01,25.89a123.52,123.52 0 0 1 -11.01,6.36q-0.59,-12.12 -1.29,-24.05q5.24,-3.8 10.29,-8.2zm1.74,-4.4q4.91,-4.55 9.59,-9.75q-1.63,-15.39 -3.32,-30.36q-4.3,5.83 -8.8,11.07q1.29,14.32 2.53,29.04zm-4.45,-26.85q1.28,14.13 2.49,28.63q-5,4.47 -10.21,8.32q-0.8,-13.68 -1.7,-27.07q4.8,-4.67 9.42,-9.88zm1.65,-5.13q4.46,-5.32 8.72,-11.22q-1.86,-16.46 -3.71,-32.33q-3.89,6.25 -7.94,12q1.45,15.49 2.93,31.55zm-4.8,-28.93q1.44,15.31 2.89,31.17q-4.58,5.29 -9.34,10q-1.02,-15.27 -2.07,-30.08q4.33,-5.31 8.52,-11.09zm1.56,-5.86q4.01,-5.82 7.86,-12.13q-1.99,-17.27 -3.85,-33.71q-3.52,6.3 -7.15,12.21q1.44,15.73 3,32.22q0.07,0.7 0.14,1.41zm-4.98,-30.65q1.33,14.48 2.77,29.59q0.17,1.86 0.35,3.72q-4.14,5.86 -8.44,11.22q-0.24,-3.5 -0.49,-6.97q-0.93,-13.17 -1.82,-25.9q3.86,-5.65 7.63,-11.66zm1.52,-6.49q3.59,-5.97 7.07,-12.3q-1.97,-17.69 -3.62,-34.28q-3.19,5.91 -6.42,11.57q1.31,16.92 2.97,35.01zm-4.83,-31.79q1.34,16.85 3,34.81q-3.73,6.06 -7.55,11.74q-1.24,-18.13 -2.22,-35.2q3.41,-5.55 6.77,-11.35zm1.57,-6.97q3.19,-5.67 6.34,-11.58q-0.4,-4.22 -0.78,-8.36q-1.2,-13.16 -2.06,-25.48q-2.86,5.04 -5.7,9.95q0.49,10.65 1.25,21.96q0.43,6.65 0.95,13.51zm-4.15,-32.13q0.45,9.15 1.1,18.76q0.54,8.16 1.2,16.64q-3.32,5.8 -6.69,11.36q-0.6,-11.02 -1.02,-21.51q-0.31,-7.8 -0.5,-15.29q2.95,-4.92 5.91,-9.96zm1.77,-7.24q2.81,-4.87 5.62,-9.87c-0.66,-10.27 -1.11,-20.06 -1.29,-29.31q-2.48,2.82 -4.86,5.63c-0.17,10.47 0.04,21.68 0.53,33.55zm-2.67,-31.01c-0.1,10.76 0.17,22.25 0.72,34.39q-2.91,5 -5.82,9.87c-0.27,-13.29 -0.2,-25.79 0.32,-37.39l3.37,-5.15q0.7,-0.86 1.41,-1.72zm2.2,-5.85q2.33,-2.72 4.75,-5.43q-0.05,-4.17 -0.03,-8.19q-2.22,2.14 -4.38,4.28q-0.23,4.56 -0.34,9.34zm-1.87,-7.14q-0.2,4.72 -0.28,9.67q-1.58,1.87 -3.12,3.74l-0.04,0.05l-0.03,0.05l-1.44,2.19q0.32,-5.77 0.8,-11.22l0.48,-0.63l0.63,-0.81q1.48,-1.52 3,-3.04zm2.73,-10.49q1.96,-1.89 3.98,-3.73l0.02,-0.02l0,-0.16l0,-0.12q-2.02,1.72 -3.97,3.5q-0.01,0.26 -0.04,0.53l0.01,0zm-2.23,1.59q-0.02,0.31 -0.04,0.62q-1.83,1.81 -3.61,3.66q0.05,-0.39 0.1,-0.77q1.74,-1.78 3.55,-3.51zm2.53,-5.18q1.87,-1.67 3.8,-3.27q0.03,-0.74 0.06,-1.48q-1.89,1.54 -3.71,3.16q-0.08,0.79 -0.15,1.59zm-2.16,0.51q-0.06,0.78 -0.13,1.56q-1.69,1.57 -3.33,3.19q0.11,-0.8 0.23,-1.6q1.58,-1.61 3.23,-3.15zm2.63,-5.17q1.73,-1.48 3.53,-2.89q0.06,-1.16 0.13,-2.3q-1.73,1.4 -3.39,2.89q-0.14,1.14 -0.27,2.3zm-2.1,-0.11q-0.12,1.07 -0.23,2.15q-1.51,1.36 -2.98,2.78q0.18,-1.05 0.37,-2.09q1.39,-1.46 2.83,-2.84l0.01,0zm2.78,-5.34q1.56,-1.32 3.17,-2.58q0.1,-1.42 0.23,-2.81q-1.54,1.29 -3,2.67q-0.22,1.34 -0.41,2.72l0.01,0zm-2.08,-0.3q-0.17,1.19 -0.32,2.41q-1.28,1.16 -2.52,2.38q0.23,-1.14 0.47,-2.26q1.16,-1.3 2.36,-2.53l0.01,0zm3.02,-5.75q1.34,-1.17 2.73,-2.28q0.15,-1.52 0.32,-3.01q-1.29,1.19 -2.53,2.45q-0.28,1.4 -0.53,2.84l0.01,0zm-2.14,0.02q-0.19,1.13 -0.37,2.27q-0.98,0.94 -1.94,1.91q0.26,-1.04 0.53,-2.07q0.87,-1.08 1.78,-2.11zm3.41,-6.53q1.07,-0.99 2.17,-1.93q0.19,-1.44 0.4,-2.85q-1,1.05 -1.96,2.15q-0.32,1.29 -0.61,2.63zm-2.38,1.06q-0.16,0.79 -0.32,1.59q-0.57,0.59 -1.13,1.2q0.21,-0.71 0.44,-1.4q0.5,-0.7 1.01,-1.39zm4.12,-8q0.69,-0.7 1.4,-1.37q0.19,-1.1 0.4,-2.18q-0.62,0.77 -1.22,1.57l-0.02,0.07q-0.29,0.94 -0.56,1.91zm2.5,-7.62l0.17,-0.2c0.04,-0.14 0.07,-0.3 0.1,-0.44l-0.09,0.15q-0.09,0.25 -0.18,0.49zm5.75,-11.77q-0.19,0.54 -0.39,1.09a45.29,45.29 0 0 1 4.89,-4.42c8.93,-6.94 20.34,-10.23 34.69,-9.44l0.04,0q14.87,1.29 29.15,3.05q2.62,-1.84 5.27,-3.68q-13.98,-2.68 -28.62,-4.93c-14.49,-1.98 -25.62,0.42 -34.12,6.5a41.61,41.61 0 0 0 -10.9,11.83l-0.01,0zm77.85,-12.58q-2.25,1.74 -4.48,3.49q1.36,0.17 2.71,0.35q2.58,-1.59 5.18,-3.16q-1.7,-0.34 -3.41,-0.68zm6.06,-0.92q-1.91,-0.4 -3.85,-0.78q2.36,-1.81 4.74,-3.61q2.23,0.6 4.45,1.2q-2.68,1.58 -5.33,3.18l-0.01,0.01zm0.39,2.22q-2.46,1.48 -4.9,2.98q2.51,0.33 5,0.67q2.48,-1.3 4.98,-2.6q-2.53,-0.53 -5.08,-1.05zm8.03,-0.46q-2.68,-0.58 -5.37,-1.14q2.54,-1.52 5.11,-3.04q2.62,0.73 5.21,1.46l-0.18,0.16l-0.22,0.17l-0.15,0.13q-2.2,1.12 -4.4,2.25l0,0.01zm1.92,2.56q-1.5,1.26 -2.98,2.53l1.58,0.23q2.35,-1.02 4.7,-2.04q-1.64,-0.37 -3.3,-0.72zm6.61,-0.7q-2.28,-0.51 -4.58,-1.01q0.8,-0.67 1.62,-1.35q1.29,-0.65 2.58,-1.31q2.69,0.77 5.35,1.56q-2.48,1.05 -4.96,2.11l-0.01,0zm0.2,2.2q-2.14,0.92 -4.27,1.84q2.29,0.34 4.56,0.68q2.15,-0.74 4.31,-1.48q-2.28,-0.53 -4.59,-1.04l-0.01,0zm7.95,-0.35q-2.31,-0.53 -4.64,-1.06q2.31,-0.99 4.63,-1.96q1.26,0.37 2.52,0.75q-1.25,1.13 -2.5,2.26l-0.01,0.01zm0.6,2.3q-0.87,0.79 -1.74,1.59l1.98,0.31q1.88,-0.48 3.76,-0.97q-1.99,-0.48 -3.99,-0.94l-0.01,0.01zm8.38,-0.19q-2.34,-0.56 -4.69,-1.11q2.12,-0.72 4.24,-1.43q2.36,0.73 4.7,1.46l-4.25,1.08zm0.02,2.17l-2.97,0.75l3.29,0.54l2.96,-0.5q-1.63,-0.41 -3.28,-0.8l0,0.01zm5.56,-0.82l-1.19,-0.3l2.02,-0.51l-0.83,0.81zm2.96,0.71l-0.54,-0.13q0.71,-0.69 1.43,-1.38q1.4,0.44 2.8,0.89l-3.69,0.62zm-0.08,2.15l-1.76,0.3l2.1,0.35l1.72,-0.14l-2.06,-0.51zm8.58,-0.04q-1.68,-0.42 -3.37,-0.84l2.89,-0.49q1.68,0.54 3.34,1.09l-0.75,0.06l0,0l-0.02,0l-2.09,0.18zm8.47,2.13l-2.17,-0.55l1.67,-0.14l2.1,0.69l-1.6,0zm46.75,11.9q-2.81,-0.7 -5.63,-1.4q3,0.48 5.98,0.95l-0.35,0.45zm-25.12,-4.19q5.44,1.4 10.8,2.76c-48.79,59.93 -90.06,129.16 -106.55,193.83l0,0.02l0,0.02c-9.24,42.53 -24.33,72.38 -42.89,93.1a128.88,128.88 0 0 1 -10.72,10.67q-1.39,-14.36 -2.89,-28.4c19.08,-21.5 35.06,-51.41 45.77,-93.11c18.22,-59.69 58.85,-123.38 106.49,-178.9l-0.01,0.01zm-5.26,-1.35l1.1,0.28l0,0l1.9,0.49c-47.49,55.5 -88,119.13 -106.24,178.88l-0.01,0.02l0,0.02c-10.4,40.47 -25.75,69.68 -44.05,90.81q-1.66,-15.59 -3.38,-30.74c14.41,-20.17 26.96,-45.54 36.67,-77.73c19.8,-54.6 59.4,-112.53 105.46,-163.5q4.3,0.72 8.55,1.45l0,0.02zm41.16,10.32l0.58,0.14l-0.03,0.04l-0.55,-0.18zm1.95,-1.7q-5.22,-1.23 -10.5,-2.53l0.5,-0.63q5.59,0.86 11.13,1.65q-0.56,0.74 -1.12,1.5l-0.01,0.01zm0.86,2.36l-0.16,0.21q4.96,1.62 9.85,3.17l0.72,-1.01q-5.18,-1.15 -10.41,-2.38l0,0.01zm11.74,0.52q-5.15,-1.14 -10.36,-2.36q0.63,-0.84 1.27,-1.69q5.5,0.77 10.96,1.46q-0.93,1.28 -1.86,2.57l-0.01,0.02zm0.9,2.34l-0.84,1.19q4.78,1.5 9.52,2.92q0.68,-1 1.36,-2q-4.99,-1.01 -10.03,-2.12l-0.01,0.01zm11.32,0.23q-4.97,-1 -9.98,-2.08q1,-1.4 2.01,-2.78q3.74,0.46 7.46,0.87q1.52,0.16 3.04,0.32q-1.26,1.82 -2.52,3.66l-0.01,0.01zm0.95,2.33q-0.74,1.09 -1.48,2.18q4.82,1.43 9.59,2.76q0.98,-1.53 1.96,-3.05q-1.82,-0.32 -3.64,-0.66q-3.2,-0.6 -6.42,-1.24l-0.01,0.01zm11.31,-0.02q-2.24,-0.39 -4.5,-0.81q-2.75,-0.51 -5.51,-1.06q1.33,-1.93 2.67,-3.86q5.25,0.53 10.48,0.95q-1.57,2.37 -3.13,4.77l-0.01,0.01zm-164,-38.18c-9.99,-1.94 -20.22,-3.74 -30.72,-5.34l-0.02,0c-14.87,-2.03 -26.58,0.4 -35.64,6.87a40.07,40.07 0 0 0 -5.8,5.07a37.79,37.79 0 0 1 12.15,-13.53c8.54,-5.59 19.93,-7.19 34.97,-3.99q15.67,3.34 30.46,7.23q-2.7,1.82 -5.39,3.68l-0.01,0.01zm-95.25,55.4q0.4,-0.58 0.8,-1.15q-0.11,0.47 -0.21,0.95q-0.43,0.48 -0.85,0.97q0.14,-0.4 0.27,-0.78l-0.01,0.01zm-1.9,6.12q0.79,-1.03 1.61,-2.04q-0.16,0.83 -0.31,1.67q-0.86,0.91 -1.7,1.84q0.2,-0.75 0.41,-1.48l-0.01,0.01zm-1.57,6.03q1.08,-1.31 2.21,-2.58q-0.14,0.88 -0.28,1.78q-1.18,1.2 -2.32,2.43q0.2,-0.83 0.39,-1.65l0,0.02zm-1.29,5.78q1.33,-1.52 2.7,-3q-0.1,0.73 -0.19,1.47q-1.42,1.45 -2.79,2.94q0.15,-0.72 0.29,-1.42l-0.01,0.01zm-1.02,5.37q1.53,-1.73 3.1,-3.41q-0.03,0.24 -0.05,0.48q-0.02,0.15 -0.04,0.31q-1.6,1.72 -3.16,3.47q0.08,-0.44 0.16,-0.87l-0.01,0.02zm-1.84,12.29q1.95,-2.63 3.94,-5.25q-0.44,5.64 -0.71,11.6q-2.33,3.55 -4.62,7.07q0.58,-6.94 1.39,-13.43l0,0.01zm-1.73,17.79q2.38,-3.65 4.8,-7.34c-0.43,11.66 -0.42,24.14 -0.1,37.36q-3.03,5.02 -6.04,9.92c0.05,-14.22 0.45,-27.57 1.34,-39.95l0,0.01zm-1.35,43.94q3.07,-4.95 6.14,-10.02q0.17,5.92 0.41,12.02q0.48,11.96 1.19,24.59q-3.52,5.72 -7.07,11.17q-0.46,-15.07 -0.62,-29.21q-0.04,-4.34 -0.04,-8.57l-0.01,0.02zm0.78,41.41q3.61,-5.46 7.17,-11.17q0.98,16.93 2.23,34.91q-3.98,5.79 -8.05,11.21q-0.77,-17.99 -1.34,-34.97l-0.01,0.02zm1.49,38.23q4.12,-5.39 8.14,-11.15q0.8,11.54 1.65,23.45l0,0q0.32,4.5 0.64,9.04q-4.44,5.41 -9.01,10.35q-0.27,-5.9 -0.53,-11.71l0,0l0,-0.03l0,-0.04q-0.45,-10.1 -0.88,-19.93l-0.01,0.02zm1.55,34.63q4.61,-4.9 9.1,-10.25q1.02,14.6 2.03,29.65q-4.88,4.7 -9.94,8.87q-0.56,-14.34 -1.19,-28.28l0,0.01zm1.3,30.9q5.08,-4.12 10.01,-8.77q0.87,13.18 1.66,26.65q-5.31,3.79 -10.79,7.01q-0.39,-12.58 -0.88,-24.9l0,0.01zm0.95,27.28q5.52,-3.19 10.86,-6.93q0.68,11.72 1.26,23.64q-5.69,2.77 -11.55,4.96q-0.23,-10.93 -0.56,-21.69l-0.01,0.02zm0.62,23.9q5.88,-2.17 11.61,-4.9q0.48,10.3 0.87,20.74q-6.01,1.73 -12.18,2.86q-0.1,-9.41 -0.29,-18.72l-0.01,0.02zm0.32,20.83q6.19,-1.13 12.24,-2.84q0.33,8.98 0.57,18.04q-3.36,0.37 -6.76,0.58q-2.97,0.18 -5.97,0.24q0,-8.05 -0.08,-16.03l0,0.01zm6.18,17.87q3.36,-0.2 6.68,-0.56q0.19,7.47 0.3,14.98q-6.52,-0.31 -13.15,-1.16q0.06,-6.52 0.06,-13.01q3.08,-0.08 6.11,-0.26l0,0.01zm-6.19,15.37q6.65,0.84 13.21,1.15q0.06,4.35 0.1,8.7q-6.66,-1.31 -13.4,-3.13q0.06,-3.38 0.1,-6.74l-0.01,0.02zm-0.13,8.89q6.76,1.8 13.45,3.11q0.01,1.79 0.02,3.58q-6.72,-2.26 -13.5,-4.97q0.01,-0.43 0.01,-0.87t0.03,-0.87l-0.01,0.02zm20.81,-390.15q0.09,-0.31 0.18,-0.62a45.06,45.06 0 0 1 7.81,-7.85c8.46,-6.57 19.34,-9.77 33.28,-9q13.63,1.18 26.76,2.77q-2.55,1.81 -5.08,3.64q-13.62,-0.62 -27.63,-0.86l-0.05,0c-13.83,0.45 -24.93,4.6 -33.75,12.01q-1.04,0.87 -2.03,1.79q0.26,-0.97 0.52,-1.89l-0.01,0.01zm69.11,-10.77q2.06,-1.66 4.15,-3.3q1.1,0.14 2.19,0.28q-2.49,1.54 -4.97,3.1l-1.37,-0.08zm5.02,0.27q2.3,-1.44 4.63,-2.87q2.33,0.31 4.65,0.62q-2.37,1.25 -4.72,2.51q-2.27,-0.15 -4.55,-0.28l-0.01,0.02zm8.57,0.5q2.14,-1.14 4.28,-2.26l1.6,0.22q-1.3,1.12 -2.6,2.24q-1.63,-0.11 -3.27,-0.21l-0.01,0.01zm7.8,-3.89l0.2,0.03l1.02,-0.88l-0.87,0.45l-0.67,0.35l0.32,0.05zm0.76,2.31l0.08,-0.07l0.06,0.01l-0.14,0.06zm0.31,2.16q1.89,-0.83 3.77,-1.65q1.98,0.29 3.95,0.58q-1.91,0.67 -3.82,1.34q-1.93,-0.15 -3.89,-0.28l-0.01,0.01zm13.87,-0.13l-1.7,-0.26q-1.5,0.52 -3.01,1.05q1.59,0.11 3.17,0.23l0.61,-0.15l0.93,-0.87zm8.72,1.37l-2,-0.32l-1.84,0.47l2.01,0.17l1.83,-0.32zm56.63,7.45q4.97,0.84 9.89,1.66l0.71,-0.86q-5.37,-0.41 -10.77,-0.86l0.17,0.06zm-19.72,-1.25l-5.51,-0.95l-1.84,-0.16l-0.02,0l-0.05,0l-5.17,-0.45c-44.01,46.18 -82.13,98.06 -103.2,147.29a322.28,322.28 0 0 1 -27.98,60.12l0.18,1.55l0,0.05q1.76,15.23 3.57,31.05c13.71,-19.67 25.67,-44.25 35.02,-75.22l0.01,-0.03l0.01,-0.02c19.78,-54.58 59.17,-112.35 104.99,-163.24l-0.01,0.01zm32.01,3.3q5.64,0.92 11.21,1.79q0.8,-1.01 1.6,-2.01q-5.94,-0.39 -11.93,-0.84l-0.88,1.06zm13.6,2.16q5.57,0.86 11.08,1.64q1.21,-1.6 2.43,-3.18q-5.85,-0.3 -11.75,-0.68q-0.87,1.1 -1.75,2.21l-0.01,0.01zm13.47,1.98q5.48,0.76 10.92,1.43q1.6,-2.18 3.21,-4.36q-1.33,-0.04 -2.67,-0.09q-4.42,-0.16 -8.87,-0.38q-1.28,1.68 -2.58,3.38l-0.01,0.02zm19.58,2.45q2.09,0.23 4.17,0.45q1.94,-2.77 3.89,-5.52q-5.47,-0.07 -10.96,-0.23q-1.69,2.28 -3.37,4.58q3.15,0.36 6.28,0.71l-0.01,0.01zm6.57,0.69q5.23,0.51 10.43,0.92q2.23,-3.36 4.48,-6.67q-5.42,0.06 -10.86,0.02q-2.02,2.83 -4.04,5.71l-0.01,0.02zm-259.19,380.97q-0.01,0.72 -0.03,1.45q-5.65,-2.31 -11.32,-4.89q5.69,1.87 11.35,3.44zm0.12,-8.6q-0.04,3.21 -0.08,6.43q-6.76,-1.89 -13.56,-4.22q0.09,-2.27 0.18,-4.55q6.76,1.4 13.46,2.34zm0.09,-14.82q-0.01,6.34 -0.07,12.7q-6.67,-0.93 -13.4,-2.35q0.2,-5.4 0.35,-10.78q6.6,0.46 13.12,0.43zm-0.08,-17.78q0.07,7.81 0.08,15.67q-6.48,0.05 -13.06,-0.43q0.19,-6.85 0.32,-13.67q5.45,-0.45 10.83,-1.27q0.91,-0.14 1.83,-0.3zm-0.31,-20.46q0.19,9.12 0.29,18.33q-1.07,0.18 -2.13,0.35q-5.2,0.8 -10.47,1.24q0.15,-8.16 0.22,-16.26l0.47,-0.12q5.86,-1.52 11.62,-3.53l0,-0.01zm-0.6,-23.47q0.32,10.56 0.55,21.26q-5.94,2.12 -12.03,3.69q0.08,-9.66 0.07,-19.2q5.78,-2.62 11.42,-5.75l-0.01,0zm-0.93,-26.81q0.47,12.1 0.86,24.44q-5.6,3.18 -11.34,5.81q-0.02,-11.35 -0.12,-22.52q5.36,-3.62 10.6,-7.73zm-1.27,-30.43q0.6,13.72 1.17,27.82q-5.2,4.16 -10.53,7.82q-0.13,-13.25 -0.33,-26.18q4.9,-4.5 9.69,-9.45l0,-0.01zm-0.74,-16.56l0,0.05l0,0.03l0,0l0,0.05q0.3,6.71 0.61,13.53q-4.75,5 -9.61,9.54q-0.12,-7.94 -0.25,-15.74l0,-0.08q-0.11,-7.22 -0.22,-14.32q4.38,-5.15 8.68,-10.66q0.39,8.71 0.79,17.61l0,-0.01zm-2.29,-55.4q0.57,16.8 1.36,34.57q-4.25,5.54 -8.59,10.71q-0.26,-17.57 -0.38,-34.25q3.83,-5.39 7.61,-11.03zm-0.87,-41.06q0.02,2.59 0.04,5.21q0.15,15.57 0.71,32.25q-3.73,5.64 -7.5,11.01c-0.05,-12.68 0.02,-24.92 0.29,-36.64q0.02,-0.86 0.04,-1.7q3.21,-5 6.43,-10.13l-0.01,0zm1.09,-43.69c-0.79,12.39 -1.1,25.68 -1.1,39.73q-3.15,5.08 -6.3,10.02c0.44,-15.06 1.25,-29.23 2.59,-42.36q2.39,-3.68 4.81,-7.39zm1.56,-17.98q-0.75,6.63 -1.27,13.68q-2.31,3.56 -4.61,7.07q0.93,-8.11 2.16,-15.66q1.85,-2.55 3.72,-5.09zm1,-7.92l-0.01,0.09q-1.53,1.87 -3.03,3.77l0.04,-0.19q1.48,-1.85 3.01,-3.67l-0.01,0zm0.71,-4.72q-0.06,0.39 -0.12,0.77q-1.33,1.54 -2.62,3.1q0.08,-0.36 0.16,-0.72q1.28,-1.59 2.59,-3.15l-0.01,0zm0.89,-5.13q-0.1,0.55 -0.2,1.11q-1.07,1.22 -2.12,2.46q0.13,-0.49 0.26,-0.97q1.02,-1.32 2.07,-2.6l-0.01,0zm1.05,-5.29q-0.11,0.51 -0.21,1.02q-0.74,0.85 -1.46,1.72q0.12,-0.4 0.24,-0.81q0.72,-0.97 1.44,-1.93l-0.01,0zm1.16,-5.03l-0.02,0.07c-0.02,0.07 -0.03,0.13 -0.05,0.2q-0.27,0.32 -0.53,0.65l0.01,-0.05q0.3,-0.44 0.59,-0.87zm20.87,-38.65q-0.34,1.55 -0.65,3.15c8.42,-7.09 18.71,-11.6 31.22,-13.2l0.03,0l0.04,0q13.2,-0.81 26.16,-1.26q2.41,-1.78 4.85,-3.56q-12.29,-0.52 -24.9,-0.74c-13.4,0.45 -24.03,4.45 -32.44,11.52a50,50 0 0 0 -4.31,4.09zm68.08,-14.58q-1.48,1.2 -2.95,2.4q1.85,-1.18 3.71,-2.36l-0.76,-0.04zm4.4,0.23q-2.13,1.34 -4.25,2.68q2.01,-0.05 4.01,-0.1q2.17,-1.18 4.35,-2.36q-2.05,-0.11 -4.11,-0.22zm8.12,0.45q-1.89,1.02 -3.77,2.03q1.84,-0.04 3.68,-0.07q1.92,-0.86 3.85,-1.73q-1.87,-0.11 -3.76,-0.23zm8.28,0.52l-1.59,0.71l-0.33,0.29l-0.4,0.34l2.29,-0.03q1.55,-0.55 3.09,-1.1l-3.06,-0.21zm8.33,0.58l-1.88,0.66l0.75,-0.01l1.13,-0.01l0.95,-0.25l0.6,-0.16l0.36,-0.1l-1.91,-0.13zm72.56,3.93q-2.95,-0.24 -5.92,-0.5l-0.56,-0.19l-1.65,-0.56q4.63,0 9.23,-0.02q-0.55,0.64 -1.1,1.27zm-39.28,-1.28l3.08,0.27l3.68,0.32c-43.66,46.02 -81.46,97.63 -102.47,146.73l-0.01,0.03l-0.01,0.03a322.86,322.86 0 0 1 -26.41,57.44q-2.01,-17.4 -3.87,-33.93a412.25,412.25 0 0 0 19.46,-40.97c21.89,-43.47 57.88,-88.88 99.15,-129.92l2.33,0l5.07,0zm54,2.45q-6.03,-0.46 -12.12,-0.96q0.65,-0.75 1.31,-1.5q6.5,-0.03 12.95,-0.11q-1.08,1.28 -2.15,2.57l0.01,0zm14.45,1.01q-5.91,-0.38 -11.88,-0.82q1.17,-1.4 2.34,-2.79q6.33,-0.09 12.63,-0.23q-1.55,1.91 -3.09,3.84zm14.27,0.81q-5.84,-0.29 -11.7,-0.65q1.63,-2.04 3.28,-4.07q5.22,-0.13 10.4,-0.31l1.99,-0.08q-2,2.55 -3.98,5.11l0.01,0zm14.05,0.57q-2.06,-0.06 -4.11,-0.14q-3.69,-0.13 -7.38,-0.3q2.08,-2.69 4.17,-5.34q6.07,-0.25 12.11,-0.58q-2.41,3.16 -4.8,6.36l0.01,0zm13.47,0.28q-5.44,-0.05 -10.9,-0.2q2.48,-3.31 4.98,-6.59q5.7,-0.33 11.38,-0.75q-2.75,3.74 -5.47,7.54l0.01,0zm13.38,-0.03q-5.4,0.08 -10.81,0.05q2.81,-3.92 5.64,-7.77q5.6,-0.44 11.18,-0.98q-3.03,4.32 -6.02,8.7l0.01,0zm-283.77,62.81q0.63,-0.9 1.26,-1.8q-0.04,0.18 -0.08,0.35q-0.61,0.77 -1.21,1.54l0.03,-0.09zm-1.82,5.97q0.96,-1.32 1.94,-2.62l-0.08,0.42l-0.01,0.05q-0.98,1.22 -1.94,2.46l0.05,-0.17l0.04,-0.14zm-1.54,5.7q1.23,-1.66 2.49,-3.3l-0.03,0.2q-1.26,1.63 -2.5,3.28l0.04,-0.18zm1.63,1.59l0.03,-0.19q-1.5,1.99 -2.97,3.99q-0.05,0.22 -0.1,0.44q1.51,-2.12 3.04,-4.25l0,0.01zm-2.7,20.38q0.85,-8.14 1.98,-15.76q-1.74,2.44 -3.45,4.88q-1.78,8.62 -3.14,17.97q2.29,-3.53 4.61,-7.09zm-5.3,12.01q2.42,-3.71 4.86,-7.47c-1.21,13.09 -1.92,27.13 -2.3,41.97q-3.32,5.16 -6.63,10.18l0.02,-0.31q0.03,-0.45 0.05,-0.89c0.92,-15.42 2.19,-29.96 4,-43.48zm-4.3,48.83q3.38,-5.08 6.77,-10.31c-0.26,12.14 -0.31,24.81 -0.25,37.92q-3.98,5.6 -8,10.93c0.35,-13.32 0.81,-26.19 1.47,-38.54l0.01,0zm-1.57,42.13q4.07,-5.34 8.11,-10.95q0.11,16.46 0.4,33.78q-4.55,5.33 -9.18,10.28q0.28,-16.94 0.66,-33.11l0.01,0zm-0.72,36.22q4.68,-4.94 9.28,-10.24q0.1,6.07 0.2,12.22l0,0.04q0.13,8.61 0.27,17.39q-5.06,4.61 -10.22,8.78q0.17,-9.62 0.32,-19.06l0,0l0,-0.12q0.07,-4.53 0.14,-9.01l0.01,0zm-0.52,30.93q5.2,-4.15 10.31,-8.73q0.19,12.7 0.32,25.7q-5.5,3.67 -11.12,6.85q0.06,-2.33 0.11,-4.65q0.21,-9.67 0.37,-19.17l0.01,0zm-0.55,26.27q5.66,-3.17 11.2,-6.79q0.1,10.94 0.12,22.07q-4.15,1.84 -8.36,3.42q-1.75,0.67 -3.51,1.29q0.31,-10.07 0.55,-19.99zm3.7,20.67q3.83,-1.45 7.62,-3.1q0,9.35 -0.07,18.8q-6.19,1.52 -12.48,2.54q0.34,-8.38 0.61,-16.68q2.16,-0.74 4.32,-1.56zm-5.02,20.39q6.31,-1.02 12.55,-2.51q-0.08,7.91 -0.22,15.9q-6.44,0.46 -12.96,0.43q0.34,-6.93 0.62,-13.82l0.01,0zm-0.74,15.93q6.55,0.01 13.03,-0.43q-0.13,6.65 -0.31,13.35q-6.65,-0.55 -13.34,-1.55q0.33,-5.7 0.62,-11.37zm-0.75,13.47q6.72,0.99 13.41,1.55q-0.15,5.23 -0.34,10.49q-6.79,-1.49 -13.61,-3.41q0.28,-4.32 0.54,-8.63zm-0.68,10.77q6.84,1.91 13.67,3.4q-0.08,2.14 -0.17,4.28q-6.84,-2.4 -13.68,-5.18q0.09,-1.25 0.17,-2.5l0.01,0zm48.76,-359.14q0.25,-1.72 0.53,-3.39q0.22,-0.2 0.45,-0.4c8.36,-7.57 18.73,-12.38 31.61,-14.04q11.6,-0.7 23.02,-1.13q-2.29,1.7 -4.55,3.42q-12.34,1.5 -24.75,3.28l-0.05,0.01l-0.04,0.01a66.64,66.64 0 0 0 -26.22,12.24zm55.21,-16.04q2.05,-1.54 4.1,-3.06l0.34,-0.01l0.41,-0.02q-1.75,1.46 -3.49,2.93l-1.36,0.16zm7.1,-5.27l0.4,-0.01q1.58,-1.29 3.16,-2.58q-1.79,1.29 -3.57,2.59l0.01,0zm0.55,4.38q1.86,-1.21 3.73,-2.41q1.71,-0.05 3.42,-0.1q-1.93,1.07 -3.85,2.14q-1.66,0.18 -3.3,0.37zm8.7,-0.96q1.51,-0.83 3.03,-1.66q1.43,-0.03 2.86,-0.06q-1.56,0.71 -3.12,1.43l-2.77,0.29zm50.34,-2.13q-3.04,0 -6.1,0.01q-5.29,0.46 -10.6,0.94c-37.44,35.33 -70.32,73.7 -92.27,110.77q-5.26,10.96 -10.67,21.13q1.6,16.59 3.59,34.38a413.52,413.52 0 0 0 17.94,-38.15l0.01,-0.04l0.02,-0.03c21.75,-43.19 57.3,-88.23 98.07,-129.01l0.01,0zm35.3,-2.06l1.15,0q0.77,-0.84 1.53,-1.67l-6.11,0.52q1.71,0.58 3.42,1.15l0.01,0zm4.01,0q6.67,0 13.3,-0.04q1.38,-1.58 2.78,-3.14q-7.14,0.64 -14.3,1.25q-0.9,0.96 -1.79,1.93l0.01,0zm16.11,-0.05q6.46,-0.04 12.88,-0.13q1.94,-2.3 3.9,-4.57q-6.87,0.67 -13.76,1.29q-1.52,1.7 -3.03,3.41l0.01,0zm15.67,-0.16q6.3,-0.1 12.57,-0.25q2.44,-3 4.9,-5.95l-1.37,0.14q-5.97,0.63 -11.97,1.22q-2.08,2.41 -4.14,4.83l0.01,0.01zm23.91,-0.59q1.89,-0.07 3.77,-0.14q2.9,-3.67 5.83,-7.29q-6.5,0.78 -13.03,1.49q-2.58,3.08 -5.14,6.2q4.29,-0.11 8.56,-0.26l0.01,0zm6.54,-0.26q6.05,-0.25 12.07,-0.6q3.31,-4.31 6.65,-8.56q-6.31,0.85 -12.66,1.63q-3.05,3.74 -6.06,7.53zm14.85,-0.76q5.67,-0.34 11.32,-0.77q3.62,-4.91 7.27,-9.73q-5.84,0.89 -11.71,1.7q-3.47,4.36 -6.89,8.8l0.01,0zm14.1,-1q5.57,-0.45 11.12,-1q3.86,-5.46 7.77,-10.81q-5.69,0.97 -11.4,1.85q-3.78,4.93 -7.51,9.97l0.02,-0.01zm-303.23,383.45q-0.07,1.04 -0.14,2.07q-4.4,-2.33 -8.76,-4.8q4.45,1.44 8.9,2.73zm0.67,-10.5q-0.25,4.17 -0.53,8.35q-6.89,-2 -13.76,-4.37q0.33,-3.27 0.64,-6.54q6.82,1.47 13.65,2.56zm0.73,-13.17q-0.28,5.52 -0.61,11.06q-6.79,-1.07 -13.58,-2.55q0.43,-4.57 0.82,-9.12q6.69,0.51 13.37,0.61zm0.72,-15.58q-0.28,6.72 -0.62,13.48q-6.63,-0.08 -13.3,-0.6q0.49,-5.71 0.94,-11.4q6.51,-0.52 12.99,-1.48l-0.01,0zm0.69,-18.43q-0.27,8.1 -0.6,16.29q-6.43,0.98 -12.9,1.5q0.54,-7.08 1.03,-14.1q6.27,-1.62 12.47,-3.69zm0.62,-21.79q-0.24,9.71 -0.55,19.55q-6.16,2.09 -12.39,3.72q0.6,-8.72 1.13,-17.34q3.79,-1.75 7.55,-3.68q2.14,-1.09 4.27,-2.25l-0.01,0zm0.55,-25.76q-0.16,8.65 -0.35,17.44q-0.07,2.94 -0.14,5.89q-2.63,1.46 -5.28,2.81q-3.21,1.65 -6.44,3.16q0.42,-6.92 0.81,-13.78q0.21,-3.73 0.42,-7.44q5.53,-3.84 10.98,-8.07l0,-0.01zm0.4,-23.84l0,0.2l0,0.18q-0.17,10.26 -0.35,20.76q-5.4,4.27 -10.88,8.11q0.61,-11.08 1.18,-21.93q0.1,-1.98 0.21,-3.96q5,-4.77 9.95,-9.89q-0.05,2.87 -0.09,5.75l-0.01,0.64l-0.01,0.14zm0.79,-42.17q-0.38,15.9 -0.63,32.56q-4.89,5.14 -9.85,9.91q0.86,-16.08 1.76,-31.51q4.38,-5.35 8.73,-10.96l-0.01,0zm1.46,-41.52c-0.61,12.19 -1.04,24.87 -1.37,37.97q-4.28,5.6 -8.59,10.92c0.8,-13.18 1.7,-25.97 2.76,-38.28q3.6,-5.23 7.21,-10.61l-0.01,0zm3.95,-48.18c-1.53,12.34 -2.63,25.47 -3.46,39.27q-0.14,2.39 -0.27,4.8q-3.52,5.3 -7.04,10.45q0.39,-4.28 0.81,-8.48c1.36,-13.5 2.99,-26.34 5.02,-38.42q2.46,-3.79 4.95,-7.62l-0.01,0zm3.48,-22.68q-1.62,8.6 -2.86,17.86q-2.33,3.58 -4.63,7.14q1.94,-10.64 4.36,-20.42q1.56,-2.29 3.14,-4.58l-0.01,0zm1.14,-5.71l-0.12,0.57q-1.3,1.85 -2.58,3.7q0.1,-0.36 0.2,-0.72q1.25,-1.78 2.5,-3.55zm1.14,-5.17l0,0l-0.07,0.08l0.07,-0.08zm34.08,-61.02q-0.21,1.63 -0.4,3.31a77.13,77.13 0 0 1 20.89,-10.89l0.05,-0.02l0.05,-0.01q11.68,-2.75 23.43,-5.25q2.05,-1.6 4.13,-3.19q-10.52,1.32 -21.09,2.84a64.28,64.28 0 0 0 -27.06,13.21zm52.28,-16.56q-1.77,1.35 -3.52,2.69l2.15,-0.45l1.29,-0.86q0.93,-0.8 1.87,-1.6l-1.79,0.22zm7.06,-0.84q-1.48,0.98 -2.95,1.96l2.34,-0.48q1.55,-0.88 3.11,-1.76l-2.5,0.28zm7.88,-0.89l-1.87,1.05l1.43,-0.28q1,-0.47 2,-0.94l-1.56,0.17zm15.03,-3.7l-0.97,0.1l0.6,-0.27l0.28,-0.13l0.35,-0.15l0.43,-0.2l0.08,-0.03l-0.77,0.68zm17.58,0.42l2.4,-0.22c-36.76,34.94 -69.03,72.79 -90.73,109.43l-0.02,0.04l-0.02,0.04q-4.52,9.43 -9.15,18.26q-0.24,-2.59 -0.47,-5.15q-1.36,-14.87 -2.28,-28.62q0.49,-0.86 0.97,-1.73c20.6,-29.54 48.6,-59.78 80.23,-88.3l2.84,-0.78q8.11,-1.52 16.24,-2.97l-0.01,0zm62.57,-7.5q-6.63,0.57 -13.3,1.13l-1.11,-0.37q0.9,-0.93 1.81,-1.85l6.31,-1.06l0.03,0l9.81,-1.64q-1.77,1.89 -3.54,3.79l-0.01,0zm17.33,-1.53q-7.08,0.65 -14.2,1.26q1.92,-2.06 3.85,-4.1q7.64,-1.28 15.25,-2.58q-2.45,2.7 -4.89,5.43l-0.01,-0.01zm16.75,-1.57q-6.82,0.67 -13.67,1.3q2.59,-2.88 5.2,-5.72q6.82,-1.17 13.61,-2.36l0.95,-0.17q-3.05,3.45 -6.08,6.95l-0.01,0zm16.33,-1.68q-1.77,0.19 -3.53,0.37q-4.87,0.52 -9.75,1q3.17,-3.64 6.37,-7.23q7.03,-1.24 14.03,-2.52q-3.57,4.15 -7.12,8.38zm16,-1.84q-6.48,0.79 -12.98,1.5q3.68,-4.37 7.41,-8.65q6.83,-1.26 13.62,-2.57q-4.03,4.81 -8.04,9.72l-0.01,0zm15.63,-2.02q-6.29,0.87 -12.61,1.65q4.14,-5.05 8.32,-9.98q6.6,-1.28 13.15,-2.62q-4.44,5.41 -8.85,10.96l-0.01,-0.01zm14.68,-2.13q-5.81,0.9 -11.66,1.71q4.54,-5.68 9.12,-11.21q5.98,-1.23 11.93,-2.52q-4.71,5.92 -9.38,12.02l-0.01,0zm14.34,-2.35q-5.65,0.98 -11.33,1.88q4.79,-6.23 9.64,-12.27q5.73,-1.26 11.43,-2.58q-4.88,6.39 -9.73,12.97l-0.01,0zm-316.62,119.97q0.94,-1.42 1.89,-2.83q-0.08,0.32 -0.16,0.66q-0.99,1.44 -1.96,2.89q0.12,-0.36 0.23,-0.72zm-2.42,7.8q1.37,-2.07 2.75,-4.14q-2.2,9.61 -3.94,19.99q-2.36,3.65 -4.69,7.27q2.65,-12.06 5.88,-23.12zm-7.11,28.9q2.52,-3.91 5.08,-7.87c-1.69,10.75 -3.09,22.04 -4.27,33.8q-0.61,6.04 -1.15,12.24q-3.8,5.52 -7.58,10.89q1.06,-8.27 2.23,-16.26c1.67,-11.4 3.54,-22.36 5.69,-32.8zm-8.48,53.48q3.89,-5.47 7.78,-11.1c-1.01,12.11 -1.85,24.66 -2.63,37.58q-4.64,5.66 -9.31,11.04c1.3,-12.88 2.66,-25.4 4.16,-37.52zm-4.53,41.14q4.75,-5.42 9.47,-11.1q-0.89,15.12 -1.71,30.87q-5.27,5 -10.6,9.64q1.42,-14.97 2.84,-29.42l0,0.01zm-3.13,32.44q5.39,-4.64 10.73,-9.63l-0.1,1.8l0,0q-0.61,11.62 -1.26,23.52q-1.53,1.05 -3.06,2.07q-4.26,2.84 -8.55,5.47l0.09,-0.9q1.1,-11.29 2.15,-22.34l0,0.01zm7.48,19.51q0.87,-0.58 1.74,-1.17q-0.16,2.9 -0.32,5.82q-0.43,7.41 -0.88,14.9q-6.16,2.8 -12.37,5.19q0.97,-9.27 1.86,-18.4q5,-3.04 9.97,-6.34zm-12.07,27.09q6.24,-2.38 12.46,-5.16q-0.52,8.4 -1.11,16.9q-6.44,1.62 -12.92,2.83q0.81,-7.32 1.57,-14.58l0,0.01zm-1.81,16.75q6.51,-1.21 13.01,-2.81q-0.48,6.84 -1.01,13.73q-6.66,0.49 -13.33,0.57q0.68,-5.77 1.33,-11.5l0,0.01zm-1.58,13.6q6.7,-0.1 13.41,-0.56q-0.43,5.51 -0.9,11.06q-6.81,-0.58 -13.6,-1.53q0.56,-4.5 1.09,-8.98l0,0.01zm-1.36,11.06q6.82,0.94 13.69,1.53q-0.38,4.4 -0.79,8.83q-6.92,-1.56 -13.79,-3.46q0.46,-3.47 0.89,-6.91l0,0.01zm-1.17,9q6.9,1.9 13.87,3.47q-0.3,3.14 -0.61,6.28q-1.31,-0.46 -2.63,-0.94q-5.5,-3.27 -10.91,-6.7q0.14,-1.06 0.28,-2.12l0,0.01zm78.4,-329.4q0.12,-1.5 0.26,-2.98a74.85,74.85 0 0 1 21.81,-11.74q9.53,-2.25 19.1,-4.32q-1.77,1.4 -3.53,2.8q-11.21,3.49 -22.22,7.18l-0.05,0.01l-0.05,0.03a91.77,91.77 0 0 0 -15.32,9.01l0,0.01zm43.2,-17.96q1.33,-1.05 2.68,-2.1l1.38,-0.29q-1.52,1.03 -3.02,2.07l-1.04,0.32zm9.11,-2.87l0.88,-0.76l0.67,-0.14l-0.48,0.28l-0.34,0.2l-0.73,0.42zm94.4,-17.35l-0.89,-0.29l1.4,-0.24l-0.51,0.53zm-5.21,-1.7q4.11,-0.69 8.22,-1.38q2.22,-2.26 4.47,-4.51q-8.74,2.16 -17.47,4.35q2.41,0.76 4.79,1.53l-0.01,0.01zm15.29,-2.57l0.01,0l0.01,0q6.24,-1.04 12.48,-2.09q3.08,-3.25 6.2,-6.45q-8.67,2.11 -17.34,4.24q-2.45,2.43 -4.89,4.89l3.5,-0.58l0.03,-0.01zm15.96,-2.67q7.58,-1.28 15.14,-2.57q3.8,-4.13 7.63,-8.18l-0.82,0.2l-2.57,0.63l-0.01,0l-0.01,0l0,0l-0.01,0l-0.01,0l-12.75,3.1q-3.31,3.38 -6.59,6.81l0,0.01zm29.46,-5.05l3.55,-0.62q4.4,-4.92 8.84,-9.72q-7.63,1.86 -15.3,3.73q-4.02,4.21 -8.01,8.51q5.47,-0.95 10.92,-1.9zm6.91,-1.22q7,-1.24 13.96,-2.52q4.91,-5.64 9.87,-11.12q-7.3,1.81 -14.63,3.6q-4.62,4.95 -9.2,10.04zm17.29,-3.14q6.8,-1.27 13.57,-2.58q5.34,-6.28 10.74,-12.36q-7.03,1.77 -14.1,3.53q-5.13,5.61 -10.21,11.41zm16.88,-3.22q6.57,-1.29 13.09,-2.64q3.33,-4 6.67,-7.92q2.39,-2.8 4.78,-5.55q-6.71,1.75 -13.48,3.47q-0.44,0.49 -0.88,0.98q-5.11,5.73 -10.18,11.65l0,0.01zm16.4,-3.33q5.94,-1.24 11.85,-2.53q2.33,-2.91 4.67,-5.77q3.55,-4.33 7.1,-8.56q-5.91,1.58 -11.88,3.14q-3.4,3.88 -6.78,7.85q-2.48,2.91 -4.95,5.87l-0.01,0zm15.13,-3.26q5.7,-1.27 11.35,-2.6q2.2,-2.85 4.41,-5.66q3.73,-4.74 7.48,-9.36q-5.56,1.55 -11.18,3.06q-4.53,5.34 -9.04,10.85q-1.51,1.84 -3.01,3.71l-0.01,0zm-353.83,398.26l0.59,0.23l-0.57,-0.35l-0.02,0.12zm-1.93,-1.36l-0.08,0.55q-2.98,-1.22 -5.94,-2.48q-3.94,-2.15 -7.83,-4.37q0.15,-0.86 0.3,-1.72q1.28,0.42 2.56,0.83q5.43,3.65 10.99,7.19zm0.41,-3.1q-0.05,0.4 -0.1,0.81q-2.1,-1.35 -4.19,-2.71q2.18,0.65 4.38,1.27q-0.04,0.31 -0.09,0.62l0,0.01zm1.22,-9.36q-0.42,3.31 -0.85,6.62q-5.46,-1.54 -10.85,-3.26q-1.47,-0.99 -2.93,-1.99q0.32,-1.87 0.65,-3.74q6.94,1.32 13.98,2.36l0,0.01zm1.32,-10.75q-0.52,4.32 -1.06,8.66q-6.98,-1.02 -13.89,-2.36q0.57,-3.29 1.11,-6.57c4.59,0.2 9.21,0.29 13.84,0.27zm1.54,-13.22q-0.63,5.54 -1.29,11.12c-4.6,0.03 -9.18,-0.06 -13.74,-0.25q0.73,-4.43 1.44,-8.84q6.77,-0.85 13.59,-2.04l0,0.01zm1.77,-16.32q-0.74,7.04 -1.53,14.15q-6.75,1.2 -13.48,2.04q0.93,-5.86 1.83,-11.69q6.58,-2.07 13.18,-4.5zm2.05,-20.23q-0.87,8.89 -1.81,17.9q-6.53,2.45 -13.07,4.52q1.19,-7.72 2.31,-15.35q6.29,-3.36 12.57,-7.07zm2.44,-25.23q-0.95,9.99 -1.94,20.16q-0.08,0.81 -0.16,1.62l-0.08,0.85q-6.21,3.73 -12.45,7.08q0.84,-5.67 1.65,-11.28q0.65,-4.47 1.29,-8.9q5.86,-4.6 11.69,-9.53zm3.05,-31.7q-1.38,13.97 -2.74,28.42l0,0l0,0.01l-0.02,0.27q-5.76,4.93 -11.54,9.51l0.47,-3.29l0,-0.02l0,0q1.71,-11.87 3.4,-23.46q5.22,-5.59 10.43,-11.45l0,0.01zm4.35,-40.25c-1.43,11.86 -2.73,24.11 -4,36.67q-5.11,5.82 -10.24,11.36c1.82,-12.36 3.68,-24.43 5.64,-36.17q4.3,-5.85 8.6,-11.87l0,0.01zm7.93,-52.24q-2.59,13.34 -4.66,27.66q-1.46,9.9 -2.73,20.21q-4.19,5.89 -8.35,11.6q2.17,-12.7 4.57,-24.83q2.71,-13.57 5.82,-26.31q2.66,-4.15 5.35,-8.34l0,0.01zm6.37,-27.84q-2.89,10.68 -5.24,22.2q-2.44,3.79 -4.85,7.53c2.38,-9.1 4.97,-17.85 7.82,-26.2q1.13,-1.77 2.27,-3.53zm2,-7.06l-0.05,0.18l-0.03,0.1q-0.53,0.8 -1.05,1.6l0.07,-0.2q0.53,-0.85 1.07,-1.69l-0.01,0.01zm46.27,-72.49q-0.08,1.17 -0.15,2.36a113.35,113.35 0 0 1 9.58,-6.43l0.05,-0.03l0.06,-0.03q10.41,-4.63 21.17,-9.11q1.32,-1.08 2.65,-2.16q-8.56,2.71 -17,5.54a89.58,89.58 0 0 0 -16.35,9.85l-0.01,0.01zm68.72,-26.02q4.33,-1.24 8.68,-2.46c-30.18,27.54 -56.94,56.62 -76.91,85.09c-0.61,-9.99 -1,-19.48 -1.13,-28.44a552.84,552.84 0 0 1 43.15,-42.96q5.21,-2.61 10.5,-5.19q7.8,-3.06 15.71,-6.05l0,0.01zm65.74,-19.71l-0.69,0.17l-0.63,0.16q-2.58,-0.81 -5.18,-1.62q6.02,-2.02 12.07,-4q-2.8,2.62 -5.57,5.28l0,0.01zm22.84,-5.69q-9.36,2.3 -18.71,4.65q3.07,-2.92 6.17,-5.81q10.23,-3.33 20.48,-6.59q-3.98,3.84 -7.94,7.75zm21.18,-5.18q-8.59,2.09 -17.19,4.2q4.23,-4.14 8.5,-8.21q9.24,-2.91 18.47,-5.77q-4.92,4.83 -9.77,9.77l-0.01,0.01zm19.94,-4.85l-4,0.97l-2.61,0.64l-0.04,0.01l-9.4,2.28q5.11,-5.16 10.28,-10.18q8.51,-2.62 16.98,-5.19q-5.62,5.64 -11.2,11.46l-0.01,0.01zm19,-4.64q-7.58,1.86 -15.2,3.71q5.81,-6.02 11.69,-11.83q7.95,-2.41 15.85,-4.78q-6.18,6.32 -12.33,12.9l-0.01,0zm18.29,-4.5q-7.25,1.8 -14.54,3.59q5.37,-5.7 10.78,-11.2q1,-1.02 2,-2.04q7.53,-2.25 14.99,-4.46q-3.84,3.98 -7.66,8.08q-2.79,2.98 -5.57,6.02l0,0.01zm17.72,-4.45q-6.99,1.77 -14.03,3.53q1.71,-1.85 3.42,-3.68q5.1,-5.46 10.23,-10.73q7.2,-2.14 14.31,-4.24q-6.97,7.36 -13.92,15.11l-0.01,0.01zm17.07,-4.4q-6.67,1.75 -13.4,3.46q7.13,-7.89 14.3,-15.38l0.16,-0.05l0,0l0.02,0l0.04,-0.01l0.04,-0.02l13.23,-3.92q-7.2,7.74 -14.38,15.92l-0.01,0zm15.42,-4.08q-5.86,1.57 -11.78,3.13q7.36,-8.31 14.74,-16.15q5.74,-1.7 11.4,-3.39q-7.18,7.96 -14.36,16.4l0,0.01zm14.65,-4.02q-5.5,1.53 -11.06,3.04q7.32,-8.54 14.66,-16.59q5.27,-1.57 10.46,-3.13q-7.03,8.1 -14.05,16.67l-0.01,0.01zm-357.32,180.5q0.8,-1.31 1.62,-2.61q-3.7,11.81 -6.82,24.52q-2.6,4.06 -5.17,8.08c3.19,-10.4 6.62,-20.42 10.37,-29.99zm-12.55,37.32q2.91,-4.57 5.86,-9.18q-2.34,10.02 -4.42,20.51q-2.82,14.12 -5.29,29.04q-4.76,6.49 -9.5,12.78c2.63,-11.89 5.37,-23.48 8.28,-34.72q2.44,-9.39 5.06,-18.43l0.01,0zm-14.43,58.07q4.9,-6.47 9.82,-13.13c-1.88,11.43 -3.66,23.16 -5.42,35.14q-5.76,6.15 -11.53,12c2.35,-11.56 4.7,-22.91 7.12,-34.01l0.01,0zm-7.89,37.78q5.87,-5.93 11.76,-12.14q-1.48,10.13 -2.97,20.49l0,0l0,0l0,0.02q-0.39,2.73 -0.78,5.46q-6.37,4.98 -12.74,9.6l0.3,-1.47q0.38,-1.88 0.76,-3.75l0.66,-3.3l0.03,-0.15l0,-0.02l0,-0.01l0.01,-0.06q1.49,-7.39 2.97,-14.67zm-5.35,26.49q6.45,-4.66 12.92,-9.65q-0.49,3.36 -0.98,6.73q-0.92,6.38 -1.87,12.82q-6.74,3.56 -13.47,6.77q1.73,-8.39 3.4,-16.68l0,0.01zm-3.93,19.25q6.79,-3.22 13.62,-6.78q-1.1,7.38 -2.24,14.83q-6.96,2.16 -13.89,3.98q1.28,-6.04 2.51,-12.03zm-2.99,14.33q6.97,-1.83 14.02,-3.97q-0.87,5.61 -1.77,11.26c-4.73,0.57 -9.44,1.01 -14.1,1.38q0.93,-4.35 1.85,-8.67zm-2.32,10.81c4.7,-0.36 9.45,-0.8 14.22,-1.36q-0.68,4.23 -1.38,8.48c-4.77,-0.24 -9.5,-0.57 -14.18,-0.99q0.67,-3.07 1.34,-6.13zm-1.8,8.2c4.71,0.42 9.48,0.76 14.29,1q-0.52,3.13 -1.06,6.27q-5.65,-1.13 -11.22,-2.41q-1.34,-0.97 -2.66,-1.94q0.32,-1.46 0.65,-2.91l0,-0.01zm6.39,7.99q3.23,0.7 6.49,1.34q-0.25,1.43 -0.5,2.85q-3.02,-2.08 -6,-4.19l0.01,0zm-0.42,5.94q2.87,1 5.76,1.97l-0.14,0.77l-0.09,0.5q-2.78,-1.6 -5.53,-3.23l0,-0.01zm101.68,-312.59q0.03,-0.73 0.07,-1.44a111.28,111.28 0 0 1 10.75,-7.35q7.25,-3.23 14.67,-6.37q-0.63,0.52 -1.25,1.05q-10.44,5.52 -20.41,11.16l-0.05,0.03l-0.06,0.04q-1.89,1.41 -3.72,2.88zm121,-53.32l0.48,-0.17l-0.22,-0.06l-0.26,0.23zm3.9,-1.32q9.54,-3.21 19.14,-6.34q5.17,-4.8 10.41,-9.5q-12.92,5.07 -25.75,10.34q-2.82,2.46 -5.61,4.95l1.81,0.55zm23.93,-7.9q10.11,-3.28 20.24,-6.47q6.42,-6.1 12.93,-12q-10.96,4.09 -21.92,8.34q-5.67,5 -11.26,10.13l0.01,0zm24.83,-7.92q9.14,-2.87 18.27,-5.68q7.3,-7.09 14.69,-13.87q-9.61,3.44 -19.27,7.01q-6.9,6.15 -13.7,12.54l0.01,0zm22.71,-7.05q8.42,-2.58 16.81,-5.12q3.4,-3.36 6.81,-6.65q4.55,-4.39 9.12,-8.65q-8.64,2.99 -17.37,6.09l-1.16,1.06q-7.15,6.48 -14.22,13.27l0.01,0zm21.13,-6.43q7.89,-2.37 15.71,-4.71q8.37,-8.44 16.78,-16.38q-7.93,2.65 -15.95,5.4q-6.3,5.8 -12.59,11.86q-1.99,1.9 -3.96,3.83l0.01,0zm19.94,-5.97q7.47,-2.23 14.86,-4.43q8.64,-8.86 17.3,-17.15q-7.36,2.39 -14.85,4.87q-8.67,8.07 -17.32,16.7l0.01,0.01zm19.01,-5.66q7.14,-2.11 14.2,-4.2q8.78,-9.16 17.55,-17.66q-6.92,2.18 -13.98,4.45q-8.88,8.38 -17.78,17.41l0.01,0zm18.28,-5.41q6.74,-2 13.39,-3.97q8.76,-9.3 17.49,-17.88q-6.39,1.95 -12.91,3.99q-8.96,8.56 -17.98,17.86l0.01,0zm17.41,-5.16q5.67,-1.68 11.25,-3.35q8.42,-9.22 16.8,-17.75q-5.05,1.51 -10.21,3.07q-8.89,8.62 -17.85,18.02l0.01,0.01zm15.18,-4.52q5.18,-1.55 10.29,-3.09q7.91,-9.01 15.8,-17.4q-4.47,1.3 -9.03,2.66q-8.5,8.53 -17.07,17.82l0.01,0.01zm-417.57,420.9q1.6,0.8 3.21,1.59q-1.58,-0.96 -3.14,-1.92l-0.07,0.33zm-1.83,-1.43l-0.11,0.46q-2,-1 -3.97,-2.02q2.02,0.79 4.07,1.56l0.01,0zm2.46,-1.32q5.93,2.21 12.01,4.28q-4.5,-3.12 -8.9,-6.3q-1.27,-0.29 -2.52,-0.59q-0.31,1.3 -0.6,2.61l0.01,0zm-1.46,-3.1q-0.24,1.09 -0.49,2.18q-3.04,-1.89 -6.02,-3.8q3.22,0.83 6.5,1.63l0.01,-0.01zm1.33,-5.92l-0.39,1.75q-1.39,-1.02 -2.77,-2.05q1.56,0.15 3.15,0.3l0.01,0zm1.72,-7.85q-0.62,2.89 -1.26,5.78q-3.47,-0.32 -6.89,-0.69q-2.83,-2.15 -5.6,-4.31c4.51,-0.2 9.11,-0.45 13.74,-0.78l0.01,0zm2.23,-10.38q-0.87,4.11 -1.76,8.24c-5,0.36 -9.95,0.63 -14.83,0.84q0.77,-2.73 1.54,-5.46q4.09,-0.93 8.24,-1.92q3.38,-0.82 6.8,-1.7l0.01,0zm2.89,-13.8q-1.18,5.73 -2.4,11.5q-3.91,1.02 -7.8,1.95q-3.56,0.86 -7.1,1.66q1.18,-4.19 2.33,-8.36c4.94,-2.16 9.94,-4.39 14.96,-6.75l0.01,0zm3.8,-18.58q-1.61,7.96 -3.26,16c-4.96,2.35 -9.89,4.57 -14.79,6.72q1.74,-6.32 3.44,-12.58q7.26,-4.91 14.6,-10.13l0.01,-0.01zm5.17,-25.58q-1.17,5.75 -2.34,11.56l-0.01,0.07q-0.72,3.59 -1.45,7.21l-0.42,2.06l-0.13,0.65l-0.2,1q-7.21,5.19 -14.38,10.05q1.95,-7.19 3.87,-14.3l0,0l0.25,-0.92q0.53,-1.98 1.07,-3.95q6.83,-6.57 13.72,-13.43l0.02,0zm7.57,-36.51q-3.46,16.07 -6.82,32.77q-6.72,6.76 -13.42,13.21q4.2,-15.52 8.4,-30.61q5.88,-7.58 11.83,-15.37l0.01,0zm13.49,-55.84q-1.61,5.78 -3.15,11.7c-3.29,12.67 -6.34,25.78 -9.29,39.27q-5.71,7.54 -11.38,14.86c4.55,-16.1 9.21,-31.76 14.19,-46.88q1.32,-4.04 2.68,-8.02q3.44,-5.43 6.94,-10.93l0.01,0zm10.7,-34.02q-4.66,13.02 -8.69,26.94q-2.97,4.67 -5.91,9.29c4.32,-12.1 8.91,-23.8 13.89,-35.05l0.21,-0.36l0.19,-0.31l0.31,-0.51zm62.08,-93.12c0,0.12 -0.01,0.24 -0.02,0.36l0,0.22q7.06,-4.9 14.46,-9.77q-4.76,2.61 -9.4,5.24q-2.59,1.93 -5.06,3.95l0.02,0zm120.37,-58.84l0.47,0.14q0.98,-0.88 1.97,-1.76q-1.64,0.68 -3.27,1.37l0.83,0.25zm7.31,-5.91q-5.67,2.34 -11.31,4.71q-2.81,-0.83 -5.64,-1.66q15.37,-7.72 31.05,-15.07q-7.12,5.92 -14.11,12.03l0.01,-0.01zm31.4,-12.54q-12.7,4.93 -25.32,10.06q7.73,-6.64 15.6,-13.06q13.85,-6.39 27.77,-12.43q-9.1,7.53 -18.07,15.43l0.02,0zm27.26,-10.34q-10.76,3.99 -21.55,8.13q9.58,-8.32 19.31,-16.22q11.31,-4.84 22.56,-9.4q-4.12,3.42 -8.23,6.93q-6.07,5.19 -12.1,10.57l0.01,-0.01zm24.4,-8.85q-9.45,3.37 -18.97,6.86q4.01,-3.53 8.03,-6.97q6.67,-5.7 13.36,-11.15q9.63,-3.85 19.15,-7.49q-10.81,9 -21.58,18.75l0.01,0zm22.3,-7.79q-8.51,2.92 -17.11,5.95q11.22,-10.01 22.47,-19.22q8.45,-3.18 16.75,-6.17q-11.04,9.27 -22.12,19.44l0.01,0zm20.72,-6.99q-7.81,2.59 -15.72,5.28q11.45,-10.37 22.87,-19.78q7.57,-2.68 14.99,-5.19q-11.03,9.34 -22.16,19.69l0.02,0zm19.47,-6.37q-7.26,2.34 -14.65,4.77q11.44,-10.5 22.77,-19.91q6.9,-2.3 13.64,-4.43q-10.81,9.23 -21.77,19.57l0.01,0zm18.48,-5.87q-6.84,2.14 -13.8,4.36q11.2,-10.41 22.24,-19.68q6.37,-1.98 12.57,-3.81q-10.41,9.01 -21.03,19.14l0.02,-0.01zm17.27,-5.33q-6.29,1.92 -12.72,3.91q10.78,-10.15 21.36,-19.14q5.7,-1.64 11.22,-3.14q-9.83,8.64 -19.87,18.38l0.01,-0.01zm14.39,-4.32q-4.93,1.47 -9.97,2.98q10.14,-9.69 20.06,-18.27q4.02,-1.06 7.93,-2.04q-8.93,8.2 -18.03,17.34l0.01,-0.01zm13,-3.81q-4.34,1.26 -8.77,2.56c18.78,-18.61 37.1,-34.31 54.02,-46.29q5.9,-4.17 11.55,-7.73c-17.82,13.31 -37.12,30.78 -56.82,51.46l0.02,0zm-425.8,286.47c5.71,-13.76 11.69,-27.19 18.08,-40.25q-5.42,13.59 -10.28,27.9q-3.95,6.21 -7.82,12.35l0.02,0zm-4.59,11.25q4.75,-7.58 9.58,-15.23c-5.49,16.69 -10.59,34.02 -15.58,51.86q-7.49,9.62 -14.91,18.96c6.81,-18.99 13.67,-37.55 20.89,-55.59l0.02,0zm-23.13,61.77q7.78,-9.79 15.64,-19.83q-3.98,14.35 -7.94,29.1c-5.54,5.31 -11.06,10.5 -16.54,15.62l0.79,-2.24l0.04,-0.1q1.78,-5.03 3.55,-10.02q2.22,-6.29 4.45,-12.53l0.01,0zm-10.37,29.2c5.62,-5.25 11.3,-10.56 17,-16l-0.15,0.58l-0.25,0.9l0,0.01l-0.01,0.04l-0.01,0.04q-2.23,8.24 -4.49,16.6c-5.66,3.82 -11.28,7.53 -16.84,11.18q2.37,-6.7 4.73,-13.34l0.02,-0.01zm-5.93,16.65c5.66,-3.71 11.39,-7.48 17.17,-11.37q-1.61,5.91 -3.25,11.85c-5.6,2.44 -11.16,4.78 -16.63,7.08q1.35,-3.78 2.69,-7.55l0.02,-0.01zm-1.7,9.42c4.9,-2.06 9.86,-4.16 14.9,-6.33q-1.08,3.9 -2.18,7.82q-4.33,0.97 -8.6,1.89q-2.1,-1.69 -4.14,-3.38l0.02,0zm6.22,5.07q2.91,-0.63 5.86,-1.28q-0.68,2.42 -1.37,4.85q-2.29,-1.77 -4.5,-3.56l0.01,-0.01zm-4.97,6.19q4.34,-0.13 8.78,-0.3q-0.42,1.5 -0.85,3q-2.48,-0.32 -4.92,-0.64q-1.52,-1.03 -3.01,-2.06zm10.61,0.97l-0.57,1.99q1.85,0.23 3.71,0.44q-1.58,-1.21 -3.14,-2.43zm-3.71,3.72l0.44,0.06l-0.06,0.2l-0.38,-0.26zm2.28,1.28l-0.06,0.2q0.82,0.55 1.65,1.1q6.07,1.63 12.32,3.16q-3.07,-2.26 -6.08,-4.54q-3.81,-0.41 -7.56,-0.88l-0.07,0.24l-0.15,0.55l-0.05,0.17zm-4.88,1.69q1.01,0.29 2.04,0.57l-0.08,0.25q-0.98,-0.41 -1.96,-0.82zm4.06,1.13l-0.14,0.5q2.39,0.98 4.81,1.95q-1.57,-1.02 -3.12,-2.04l-1.55,-0.41zm123.28,-292.81l-0.22,0.18l0.23,-0.2l-0.01,0.02zm2.15,-1.76l0,-0.08l0.6,-0.42l-0.6,0.5zm35.24,-23.12q-5.55,3.41 -10.95,6.85q-4.86,3.62 -9.58,7.25q-7.65,6.77 -14.8,13.56q-0.04,3.87 -0.01,7.89c10.72,-11.89 22.6,-23.8 35.34,-35.55zm77.64,-45.23c11.7,-5.84 23.55,-11.52 35.45,-17.02q13.77,-11.22 27.82,-21.66q-5.93,2.88 -11.85,5.86q-14.17,7.11 -28.27,14.7q-11.72,8.83 -23.15,18.12zm43.19,-20.55q13.5,-6.13 27.03,-11.91q2.3,-1.87 4.6,-3.71q13.07,-10.44 26.19,-19.97q-13.6,5.96 -27.41,12.5q-4.18,3.01 -8.35,6.1q-11.09,8.22 -22.06,16.98l0,0.01zm34.14,-14.93q11.02,-4.64 21.97,-9.02c10.5,-8.55 21.02,-16.6 31.43,-24.08q-10.18,4.05 -20.6,8.49c-10.9,7.68 -21.88,15.92 -32.8,24.61zm28.58,-11.65q9.38,-3.7 18.64,-7.18c10.35,-8.46 20.65,-16.36 30.8,-23.61q-8.12,2.93 -16.45,6.14c-10.89,7.58 -21.93,15.84 -32.99,24.65zm24.84,-9.5q8.24,-3.05 16.32,-5.91c9.9,-8.15 19.72,-15.71 29.34,-22.59q-6.75,2.18 -13.7,4.6c-10.49,7.27 -21.19,15.27 -31.96,23.9zm22.17,-7.96q7.38,-2.58 14.61,-4.98c9.23,-7.67 18.36,-14.76 27.3,-21.19q-5.79,1.66 -11.77,3.52c-9.86,6.83 -19.95,14.42 -30.14,22.65zm20.13,-6.8q6.73,-2.2 13.29,-4.24c8.42,-7.06 16.72,-13.58 24.83,-19.5q-5.08,1.25 -10.36,2.69c-9.05,6.34 -18.34,13.38 -27.76,21.05zm18.52,-5.85q6.22,-1.9 12.25,-3.64a399.7,399.7 0 0 1 37.79,-28.64a224.59,224.59 0 0 1 27.74,-15.85q-0.53,-0.03 -1.06,-0.05c-11.35,4.24 -23.9,10.75 -37.24,19.24q-4.92,3.13 -9.97,6.6q1.38,-0.3 2.73,-0.58l0.43,2.06q-3.78,0.79 -7.69,1.69c-8.14,5.78 -16.49,12.19 -24.98,19.17zm17.2,-5.05q5.54,-1.56 10.9,-2.98a387.36,387.36 0 0 1 33.94,-26.38a223.05,223.05 0 0 1 25.87,-15.45q-0.35,-0.03 -0.7,-0.05c-10.97,4.3 -23.1,10.86 -36.01,19.38a388.3,388.3 0 0 0 -34,25.48zm22.4,-5.92l0.1,0.37a393.07,393.07 0 0 1 36.35,-29.49q3.78,-2.67 7.46,-5.1a235.97,235.97 0 0 0 -20.28,12.52a376.44,376.44 0 0 0 -30.47,23.42q3.46,-0.89 6.84,-1.72zm-485.1,442.98q2.8,0.4 5.64,0.79q-0.96,-0.67 -1.92,-1.34l-3.55,0.1l-0.17,0.45zm-2.1,-0.39l-0.03,0.08l-0.25,-0.04l-0.06,-0.03l0.34,-0.01zm1.24,-3.38l-0.46,1.25l-1.3,0.03l-0.35,0.01l-0.04,0l-0.07,0l-0.44,0.01l-0.63,0.02l-0.45,0.01l-1.27,0.03l-0.68,-0.4q2.53,-0.54 5.1,-1.09l0.32,-0.07l0.27,0.2zm2.52,-0.79l0,0l0.2,-0.04l0.03,-0.01q3.8,-0.81 7.68,-1.64q2.03,1.64 4.1,3.29q-4.72,0.17 -9.33,0.29q-1.34,-0.95 -2.68,-1.89zm0.84,-2.33q0.72,-1.99 1.44,-3.97q1.75,1.45 3.54,2.91q-2.5,0.54 -4.97,1.06l-0.01,0zm-1.12,-3.07q-0.65,1.79 -1.3,3.59l-0.75,0.15q-1.27,-0.9 -2.52,-1.81q2.28,-0.96 4.57,-1.93zm3.39,-9.43q-0.89,2.49 -1.79,4.99q-1.28,-1.07 -2.54,-2.14q2.16,-1.42 4.33,-2.85zm5.51,-15.47q-2.15,6.06 -4.33,12.16q-3.61,2.38 -7.18,4.73q-1.72,-1.47 -3.41,-2.93q6.83,-6.43 13.79,-12.9l0,0l0,0l0.03,-0.02l0.01,-0.02l0,0l0,0l0,0l1.09,-1.02zm9.66,-27.21q-1.2,3.35 -2.39,6.73q-1.79,5.04 -3.59,10.12l-2.15,6.05l-3.91,3.65l0,0l0,0l-0.01,0.01q-7.12,6.64 -14.12,13.21q-0.85,-0.75 -1.7,-1.49l3.04,-6.63l0,0l0.43,-0.93c6.17,-7.83 12.4,-15.65 18.67,-23.53l0,0l0.11,-0.14l0.13,-0.16l0.16,-0.19l0.01,-0.01q2.66,-3.34 5.33,-6.69l-0.01,0zm21.06,-57.08c-6.46,16.59 -12.66,33.6 -18.87,50.94q-4.75,5.98 -9.46,11.9l0,0q-6.73,8.45 -13.4,16.85c7.73,-16.8 15.38,-33.35 23.15,-49.69q9.18,-14.94 18.58,-29.99l0,-0.01zm15.88,-38.46q-4.36,9.88 -8.5,19.99q-1.58,3.85 -3.14,7.72q-7.12,11.37 -14.09,22.6c8.28,-16.97 16.77,-33.72 25.73,-50.31zm186.34,-196.25q2.34,0.66 4.66,1.32q8.49,-7 17.18,-13.78q-11.01,6.11 -21.84,12.47l0,-0.01zm32.72,-20.81c-11.98,6.46 -23.87,13.15 -35.54,20.03q-2.41,-0.66 -4.84,-1.31q2.6,-1.95 5.22,-3.89c18.68,-12.33 37.95,-24.09 57.3,-34.98c10.3,-5.81 20.63,-11.37 30.89,-16.65q-10.92,6.94 -21.86,14.41c-10.46,7.15 -20.88,14.63 -31.16,22.39l-0.01,0zm50.52,-25.57q-11.01,5.22 -22.06,10.76q-8.02,4.03 -16.02,8.2q9.91,-7.21 19.92,-14.04c13.97,-9.56 28.02,-18.5 41.9,-26.71c10.8,-5.17 21.46,-10 31.9,-14.41c-18.21,10.54 -36.96,22.75 -55.64,36.21l0,-0.01zm36.58,-16.47q-12.85,5.48 -25.92,11.5a623.04,623.04 0 0 1 60.97,-37.75q8.34,-3.26 16.4,-6.13a551.98,551.98 0 0 0 -51.45,32.39l0,-0.01zm28.8,-11.71q-9.6,3.71 -19.42,7.77a505.95,505.95 0 0 1 53.96,-32.36l0.68,-0.35q5.15,-1.67 10.15,-3.15l-0.11,0.06a465.66,465.66 0 0 0 -45.27,28.03l0.01,0zm23.83,-8.77q-7.62,2.66 -15.46,5.59c12.99,-8.73 25.7,-16.46 37.89,-23q4.61,-2.47 9.11,-4.71q3.68,-0.98 7.27,-1.83q-2.83,1.51 -5.69,3.12c-10.68,6 -21.78,12.99 -33.12,20.83zm20.38,-6.73q-6.33,1.97 -12.86,4.16c9.09,-6.08 18,-11.58 26.63,-16.43q6.45,-3.62 12.67,-6.74q2.99,-0.62 5.9,-1.15q-3.92,2.14 -7.92,4.49c-7.92,4.65 -16.09,9.9 -24.42,15.67zm17.79,-5.22q-5.43,1.49 -11.04,3.16q9.56,-6.4 18.74,-11.79c14.52,-8.53 28.2,-15.03 40.54,-19.14l0.07,0a237.1,237.1 0 0 0 -29.99,15.76q-8.96,5.48 -18.32,12.01zm15.76,-4q-4.76,1.11 -9.71,2.39q6.79,-4.59 13.37,-8.61c13.87,-8.48 26.92,-14.98 38.71,-19.15q0.32,0 0.64,0.01a230.17,230.17 0 0 0 -28.76,15.78q-6.99,4.45 -14.25,9.58zm-496.5,450.8q8.36,-11.06 16.86,-21.9q-1.9,4.14 -3.82,8.31l-0.43,-0.33l-1.28,1.67l0.69,0.52q-6.08,5.82 -12.02,11.73zm13.86,-10.34q-0.87,1.89 -1.75,3.79q1.78,-1.21 3.58,-2.42q-0.92,-0.69 -1.83,-1.37zm4.2,-9.11l-1.61,3.49q1.34,-1.27 2.68,-2.54q-0.54,-0.48 -1.08,-0.95l0.01,0zm-9.17,14.5l0.13,0.08l-0.3,0.65l-0.24,0.16l-0.44,-0.2l-0.49,-0.23l0.81,-0.78l0.53,0.32zm390.15,-427.14q12.75,-5.61 25.07,-10.44q8.38,-4.49 16.53,-8.44c7.84,-3.8 15.5,-7.22 22.91,-10.21c-10.72,3.71 -22.02,8.3 -33.72,13.68c-10.01,4.6 -20.31,9.76 -30.79,15.41zm42.14,-16.81q6.07,-2.15 11.98,-4.07c8.3,-4.21 16.39,-7.94 24.18,-11.11a325.98,325.98 0 0 0 -35.79,15l-0.37,0.18zm25.1,-8.09q3.59,-1.03 7.08,-1.96q8.9,-4.42 17.36,-7.91a260.5,260.5 0 0 0 -24.44,9.87zm17.28,-4.48q2.6,-0.59 5.13,-1.12q7.74,-3.87 15.09,-6.94c-6.45,2.18 -13.21,4.88 -20.22,8.06zm14.16,-2.82l0.19,1.14q9.67,-5.16 18.72,-8.99a195.76,195.76 0 0 0 -19.92,8.02l1.01,-0.17zm-173.77,69.98c17.45,-9.84 34.97,-18.98 52.16,-27.22a583.43,583.43 0 0 1 52.84,-27.88q10.35,-4.74 20.26,-8.67c-37.69,13.05 -81.52,35.03 -124.9,62.09q-11.43,7.13 -22.78,14.71q11.17,-6.69 22.42,-13.03zm-319.97,393.33l0.08,0.01l0.04,-0.03l-0.08,-0.02l-0.04,0.04zm1.74,-1.72l0.55,0.18l0.22,-0.15l-0.27,-0.13l-0.27,-0.12l-0.23,0.22zm9.54,-9.22q1.13,0.85 2.28,1.7q3.13,-2.1 6.31,-4.2q-1.58,-1.35 -3.12,-2.69q-2.75,2.59 -5.47,5.19zm-3.83,9.25l-0.31,-0.15l-0.43,-0.2l0.33,-0.23l0.3,-0.2l0.79,0.48l-0.25,0.11l-0.43,0.19zm3.03,-1.33l-1.24,-0.76q2.12,-1.44 4.26,-2.88q1,0.74 2,1.47q-2.52,1.08 -5.02,2.17zm7.27,-3.12q-1.2,-0.88 -2.4,-1.76q3.07,-2.05 6.18,-4.11q1.67,1.42 3.37,2.84q-3.6,1.52 -7.15,3.02l0,0.01zm-7.76,5.63l0.4,0.19l0.35,-0.08l-0.42,-0.26l-0.33,0.15zm2.7,-1.18l1.04,0.63q2.85,-0.62 5.75,-1.24q-1,-0.72 -2,-1.44q-2.41,1.02 -4.79,2.05zm537.52,-476.95l-0.58,0.26l0.01,-0.07l0.32,-0.1l0.12,-0.04l0.13,-0.05zm-360.3,482.4q-1.11,-13.02 -2.35,-25.84a130.46,130.46 0 0 0 12.05,-11.84c18.85,-21.06 34.07,-51.26 43.37,-94.04c16.45,-64.51 57.77,-133.73 106.65,-193.63q5.08,1.72 10.08,3.41c-49.75,64.16 -91.44,138.7 -106.01,208.02l0,0.01l0,0.02c-8.19,44.97 -23.22,75.66 -42.3,96.05a109.6,109.6 0 0 1 -21.49,17.84zm-155.43,4.4q-3.73,-1.05 -7.38,-2.12q2.64,0.37 5.32,0.73q1.03,0.69 2.06,1.39zm155.63,-2.04q0.97,11.53 1.83,23.21a96.94,96.94 0 0 0 32.8,-22.17c19.61,-20.06 34.58,-51.58 41.71,-99l0,-0.01l0,-0.01c12.6,-73.98 54.67,-153.87 105.35,-222.26q-4.96,-1.64 -10,-3.34c-49.81,64.12 -91.52,138.6 -106.05,207.72c-8.24,45.24 -23.4,76.34 -42.83,97.1a111.52,111.52 0 0 1 -22.81,18.75l0,0.01zm3.33,45.55q-0.62,-10.11 -1.34,-20.14a99.03,99.03 0 0 0 34.14,-22.9c20.02,-20.47 35.12,-52.45 42.29,-100.15c12.57,-73.76 54.65,-153.58 105.38,-221.92q4.98,1.63 9.89,3.2c-51.43,72.53 -93.71,157.6 -104.26,236.1l0,0.01c-6.08,49.89 -20.99,82.24 -41.13,101.96a89.55,89.55 0 0 1 -44.97,23.84zm0.13,2.12a91.69,91.69 0 0 0 46.31,-24.45c20.6,-20.17 35.63,-53.05 41.74,-103.2c10.52,-78.26 52.81,-163.25 104.29,-235.71q4.81,1.51 9.57,2.95c-51.13,75.94 -92.51,164.82 -100.86,246.65l0,0.01c-5.03,52.35 -19.88,85.53 -40.54,104.92c-16.66,15.63 -37.22,22.4 -59.73,22.9q-0.36,-7.05 -0.78,-14.07zm1.29,24.84q-0.19,-4.34 -0.41,-8.67c22.89,-0.53 43.96,-7.41 61.07,-23.47c21.18,-19.87 36.14,-53.63 41.2,-106.24c8.32,-81.58 49.7,-170.36 100.87,-246.24q4.85,1.44 9.65,2.78c-50.29,78.93 -90.19,170.79 -96.32,255.27c-3.97,54.81 -18.77,88.82 -39.96,107.88c-20.43,18.37 -47,23 -76.1,18.69z" data-name="shape.2b51cba3ac3363b666ac" fill="#8ee0b7" fill-rule="evenodd" id="shape.2b51cba3ac3363b666ac-2" opacity="0.15" stroke="#032cb2"/>
 </g>
</svg>